<svg xmlns="http://www.w3.org/2000/svg" viewBox="0 0 500 500"><g id="freepik--Floor--inject-51"><path id="freepik--floor--inject-51" d="M77.66,252.93c-95.18,54.95-95.17,144.05,0,199s249.49,54.95,344.67,0,95.17-144,0-199S172.84,198,77.66,252.93Z" style="fill:#fafafa"></path></g><g id="freepik--Shadows--inject-51"><ellipse id="freepik--Shadow--inject-51" cx="370.2" cy="408.16" rx="76.71" ry="44.29" style="fill:#e0e0e0"></ellipse><ellipse id="freepik--shadow--inject-51" cx="129.8" cy="408.16" rx="76.71" ry="44.29" style="fill:#e0e0e0"></ellipse></g><g id="freepik--plant-2--inject-51"><g id="freepik--Plants--inject-51"><path d="M454.07,346.29c-1.6,1.36-2.44,3.14-1.74,6.08,2.71,1.05,4.68.63,6.28-.73a3.52,3.52,0,1,0-4.54-5.35Z" style="fill:#C53F3F"></path><path d="M455.94,358c-2.09-.15-3.94.52-5.51,3.11,1.2,2.65,2.9,3.74,5,3.9a3.53,3.53,0,1,0,.52-7Z" style="fill:#C53F3F"></path><path d="M442.55,368.48c-1.79,1.11-2.88,2.74-2.63,5.75,2.52,1.45,4.53,1.33,6.32.23a3.52,3.52,0,1,0-3.69-6Z" style="fill:#C53F3F"></path><path d="M437.83,350.15c0,2.1.8,3.89,3.49,5.28,2.56-1.38,3.53-3.15,3.54-5.25a3.53,3.53,0,1,0-7,0Z" style="fill:#C53F3F"></path><path d="M427.51,360.69c.29,2.08,1.34,3.74,4.21,4.73,2.33-1.73,3-3.62,2.75-5.7a3.52,3.52,0,1,0-7,1Z" style="fill:#C53F3F"></path><path d="M447.47,357.14a60.67,60.67,0,0,0-6.07,6.14,50.06,50.06,0,0,0-5.28,7.49,42.41,42.41,0,0,0-2.27,4.52c-.33.77-.59,1.62-.88,2.45l.76-.43c1.31-.75,2.62-1.48,3.94-2.22a36.17,36.17,0,0,0,3.35-2c.24-.16.2.27.09.38a15.43,15.43,0,0,1-3.48,2.38l-3.94,2.25-1.14.64c-.36.21-.54.3-.83.46-1.25.67-5.47,2.49-6.8,3l-.32-.68a64.34,64.34,0,0,0,7.32-3.2c.08-.26.18-.52.26-.77.27-.76.56-1.51.87-2.26.59-1.41,1.26-2.8,2-4.15a49.18,49.18,0,0,1,5.26-7.7,60.52,60.52,0,0,1,6.08-6.32c1.18-1.07,2.41-2.08,3.67-3.06a22.24,22.24,0,0,1,4.21-2.78c.08,0,.07.14,0,.17C452.16,353.49,449.69,355.19,447.47,357.14Z" style="fill:#C53F3F"></path><path d="M449.66,346.17c.08-.11.19,0,.17.1a13.82,13.82,0,0,1-.66,2.34c-.31.95-.65,1.9-.94,2.86-.62,2-1.08,4.12-1.6,6.19-.1.38-.81.6-.74.07a31.15,31.15,0,0,1,1.29-5.64A20.6,20.6,0,0,1,449.66,346.17Z" style="fill:#C53F3F"></path><path d="M441.8,353.48c.06-.14.22-.09.19.06-.09.47-.11.92-.22,1.39s-.23,1-.35,1.49c-.22.94-.44,1.88-.62,2.83-.33,1.85-.55,3.72-.85,5.58,0,.24-.48.47-.5.11a23,23,0,0,1,.51-5.73c.18-.94.38-1.88.65-2.8A18.17,18.17,0,0,1,441.8,353.48Z" style="fill:#C53F3F"></path><path d="M442.44,362.37a18.83,18.83,0,0,1,3.08-1.1,17.11,17.11,0,0,1,3.33-.53,8.84,8.84,0,0,1,3.4.25c.18.07,0,.39-.13.4-1.09.08-2.19,0-3.28.1a20.32,20.32,0,0,0-3,.46,17.27,17.27,0,0,0-2.91.92c-.43.18-.86.37-1.27.58a7.12,7.12,0,0,0-.67.36c-.2.14-.35.34-.55.48s-.23.09-.27,0C439.93,363.34,441.82,362.65,442.44,362.37Z" style="fill:#C53F3F"></path><path d="M431.59,364.19a.1.1,0,0,1,.09,0c.33.14.24.66.27,1s.12.88.19,1.31a18.63,18.63,0,0,0,.61,2.53,20.68,20.68,0,0,0,1,2.5c.3.62,1,1.61.61,2.31-.07.12-.31.33-.46.19s-.35-.78-.51-1.14-.39-.78-.57-1.18a17,17,0,0,1-1.53-5.09C431.19,365.86,431,364.71,431.59,364.19Z" style="fill:#C53F3F"></path><g style="opacity:0.55"><path d="M454.07,346.29c-1.6,1.36-2.44,3.14-1.74,6.08,2.71,1.05,4.68.63,6.28-.73a3.52,3.52,0,1,0-4.54-5.35Z" style="fill:#fff"></path><path d="M455.94,358c-2.09-.15-3.94.52-5.51,3.11,1.2,2.65,2.9,3.74,5,3.9a3.53,3.53,0,1,0,.52-7Z" style="fill:#fff"></path><path d="M442.55,368.48c-1.79,1.11-2.88,2.74-2.63,5.75,2.52,1.45,4.53,1.33,6.32.23a3.52,3.52,0,1,0-3.69-6Z" style="fill:#fff"></path><path d="M437.83,350.15c0,2.1.8,3.89,3.49,5.28,2.56-1.38,3.53-3.15,3.54-5.25a3.53,3.53,0,1,0-7,0Z" style="fill:#fff"></path><path d="M427.51,360.69c.29,2.08,1.34,3.74,4.21,4.73,2.33-1.73,3-3.62,2.75-5.7a3.52,3.52,0,1,0-7,1Z" style="fill:#fff"></path><path d="M447.47,357.14a60.67,60.67,0,0,0-6.07,6.14,50.06,50.06,0,0,0-5.28,7.49,42.41,42.41,0,0,0-2.27,4.52c-.33.77-.59,1.62-.88,2.45l.76-.43c1.31-.75,2.62-1.48,3.94-2.22a36.17,36.17,0,0,0,3.35-2c.24-.16.2.27.09.38a15.43,15.43,0,0,1-3.48,2.38l-3.94,2.25-1.14.64c-.36.21-.54.3-.83.46-1.25.67-5.47,2.49-6.8,3l-.32-.68a64.34,64.34,0,0,0,7.32-3.2c.08-.26.18-.52.26-.77.27-.76.56-1.51.87-2.26.59-1.41,1.26-2.8,2-4.15a49.18,49.18,0,0,1,5.26-7.7,60.52,60.52,0,0,1,6.08-6.32c1.18-1.07,2.41-2.08,3.67-3.06a22.24,22.24,0,0,1,4.21-2.78c.08,0,.07.14,0,.17C452.16,353.49,449.69,355.19,447.47,357.14Z" style="fill:#fff"></path><path d="M449.66,346.17c.08-.11.19,0,.17.1a13.82,13.82,0,0,1-.66,2.34c-.31.95-.65,1.9-.94,2.86-.62,2-1.08,4.12-1.6,6.19-.1.38-.81.6-.74.07a31.15,31.15,0,0,1,1.29-5.64A20.6,20.6,0,0,1,449.66,346.17Z" style="fill:#fff"></path><path d="M441.8,353.48c.06-.14.22-.09.19.06-.09.47-.11.92-.22,1.39s-.23,1-.35,1.49c-.22.94-.44,1.88-.62,2.83-.33,1.85-.55,3.72-.85,5.58,0,.24-.48.47-.5.11a23,23,0,0,1,.51-5.73c.18-.94.38-1.88.65-2.8A18.17,18.17,0,0,1,441.8,353.48Z" style="fill:#fff"></path><path d="M442.44,362.37a18.83,18.83,0,0,1,3.08-1.1,17.11,17.11,0,0,1,3.33-.53,8.84,8.84,0,0,1,3.4.25c.18.07,0,.39-.13.4-1.09.08-2.19,0-3.28.1a20.32,20.32,0,0,0-3,.46,17.27,17.27,0,0,0-2.91.92c-.43.18-.86.37-1.27.58a7.12,7.12,0,0,0-.67.36c-.2.14-.35.34-.55.48s-.23.09-.27,0C439.93,363.34,441.82,362.65,442.44,362.37Z" style="fill:#fff"></path><path d="M431.59,364.19a.1.1,0,0,1,.09,0c.33.14.24.66.27,1s.12.88.19,1.31a18.63,18.63,0,0,0,.61,2.53,20.68,20.68,0,0,0,1,2.5c.3.62,1,1.61.61,2.31-.07.12-.31.33-.46.19s-.35-.78-.51-1.14-.39-.78-.57-1.18a17,17,0,0,1-1.53-5.09C431.19,365.86,431,364.71,431.59,364.19Z" style="fill:#fff"></path></g><path d="M449.31,372.87a46,46,0,0,0-6.22,3.8c-3.78,2.75-14.64,14.56-17.72,18l0,0-.75-.37s0,0,0,0c2.69-3.95,14.3-15.92,18.23-18.6a49.89,49.89,0,0,1,6.13-3.56,25.21,25.21,0,0,1,7.11-2.6c.18,0,.07.3,0,.34C453.84,371,451.51,371.75,449.31,372.87Z" style="fill:#C53F3F"></path><path d="M451.68,371.59a12,12,0,0,0,9.91-2c4.24-2.84,8.29-5,8.74-6s-6.33-1-11.46.8S452.54,368.86,451.68,371.59Z" style="fill:#C53F3F"></path><path d="M450.55,375.66c.25-.86,2.95-1.55,7.07-.56s8.9,3.76,8.9,4.41-6.06,1.29-10.24-.22S450.31,376.46,450.55,375.66Z" style="fill:#C53F3F"></path><path d="M450.9,353.16c.74,0,1,7-1,11.74-1.79,4.07-3.26,6.07-4.21,6.3a1.16,1.16,0,0,1,0,.18,11.84,11.84,0,0,1-.86,2.26,8.18,8.18,0,0,1-3.05,3.69c-.09.05-.08-.1-.06-.14.74-1.24,1.63-2.38,2.28-3.66a18.18,18.18,0,0,0,1-2.55c-.77-.85-1.1-3.8.19-8C446.61,358.38,450.15,353.11,450.9,353.16Z" style="fill:#C53F3F"></path><path d="M439.78,381.27c.16-.88,2.79-1.84,7-1.26s9.23,2.88,9.29,3.52-5.9,1.88-10.22.78S439.62,382.09,439.78,381.27Z" style="fill:#C53F3F"></path><path d="M444.15,375a2.83,2.83,0,0,1,1.73-.45,11.93,11.93,0,0,1,2.15.18A20.46,20.46,0,0,1,452.4,376c.15.06,0,.4-.12.38-1.45-.22-2.86-.59-4.3-.86a10.69,10.69,0,0,0-2-.22,7.7,7.7,0,0,0-1,0c-.27,0-.67.12-.9-.06S444.09,375,444.15,375Z" style="fill:#C53F3F"></path><path d="M439.36,380.72a9,9,0,0,1,1.72.2,5.65,5.65,0,0,1,1.61.59c.13.06.05.32-.09.3a31.92,31.92,0,0,0-3.25-.32,10,10,0,0,0-1.54.05,2.31,2.31,0,0,0-1.16.4c-.29.2-.59,0-.39-.33C436.82,380.64,438.41,380.71,439.36,380.72Z" style="fill:#C53F3F"></path><path d="M434,384.43l-.8.09c-1-.9-2.08-5.07-1.47-9.09.71-4.7,2.95-8.13,3.52-8.37s2.49,5.24,1.49,10.61A16.31,16.31,0,0,1,434,384.43Z" style="fill:#C53F3F"></path><g style="opacity:0.15"><path d="M449.31,372.87a46,46,0,0,0-6.22,3.8c-3.78,2.75-14.64,14.56-17.72,18l0,0-.75-.37s0,0,0,0c2.69-3.95,14.3-15.92,18.23-18.6a49.89,49.89,0,0,1,6.13-3.56,25.21,25.21,0,0,1,7.11-2.6c.18,0,.07.3,0,.34C453.84,371,451.51,371.75,449.31,372.87Z"></path><path d="M451.68,371.59a12,12,0,0,0,9.91-2c4.24-2.84,8.29-5,8.74-6s-6.33-1-11.46.8S452.54,368.86,451.68,371.59Z"></path><path d="M450.55,375.66c.25-.86,2.95-1.55,7.07-.56s8.9,3.76,8.9,4.41-6.06,1.29-10.24-.22S450.31,376.46,450.55,375.66Z"></path><path d="M450.9,353.16c.74,0,1,7-1,11.74-1.79,4.07-3.26,6.07-4.21,6.3a1.16,1.16,0,0,1,0,.18,11.84,11.84,0,0,1-.86,2.26,8.18,8.18,0,0,1-3.05,3.69c-.09.05-.08-.1-.06-.14.74-1.24,1.63-2.38,2.28-3.66a18.18,18.18,0,0,0,1-2.55c-.77-.85-1.1-3.8.19-8C446.61,358.38,450.15,353.11,450.9,353.16Z"></path><path d="M439.78,381.27c.16-.88,2.79-1.84,7-1.26s9.23,2.88,9.29,3.52-5.9,1.88-10.22.78S439.62,382.09,439.78,381.27Z"></path><path d="M444.15,375a2.83,2.83,0,0,1,1.73-.45,11.93,11.93,0,0,1,2.15.18A20.46,20.46,0,0,1,452.4,376c.15.06,0,.4-.12.38-1.45-.22-2.86-.59-4.3-.86a10.69,10.69,0,0,0-2-.22,7.7,7.7,0,0,0-1,0c-.27,0-.67.12-.9-.06S444.09,375,444.15,375Z"></path><path d="M439.36,380.72a9,9,0,0,1,1.72.2,5.65,5.65,0,0,1,1.61.59c.13.06.05.32-.09.3a31.92,31.92,0,0,0-3.25-.32,10,10,0,0,0-1.54.05,2.31,2.31,0,0,0-1.16.4c-.29.2-.59,0-.39-.33C436.82,380.64,438.41,380.71,439.36,380.72Z"></path><path d="M434,384.43l-.8.09c-1-.9-2.08-5.07-1.47-9.09.71-4.7,2.95-8.13,3.52-8.37s2.49,5.24,1.49,10.61A16.31,16.31,0,0,1,434,384.43Z"></path></g><path d="M437.56,348.33a11.93,11.93,0,0,0,7.1-7.21c1.94-4.73,4.12-8.74,3.9-9.88s-5.83,2.66-9.08,7S436.77,345.58,437.56,348.33Z" style="fill:#C53F3F"></path><path d="M433.06,352c-.87.43-2.82-3.75-2.67-7.95s1.77-7.42,2.24-7.69,2.7,5.93,2.41,9.18S433.62,351.68,433.06,352Z" style="fill:#C53F3F"></path><path d="M429.24,361c-.86.68-3.95-3.49-4.74-8.18s.28-8.65.74-9.06,4.31,5.94,4.72,9.62S429.8,360.59,429.24,361Z" style="fill:#C53F3F"></path><path d="M434,358.92c-.83-.71,2.65-4.56,7.1-6.26s8.53-1.44,9-1.06-3.34,4.75-8.5,6.52C438.09,359.33,434.51,359.38,434,358.92Z" style="fill:#C53F3F"></path><path d="M426.05,372.18c.33-1.11,1.64-5.06,2.16-6.48.06-.19.14-.51.2-.71a14.71,14.71,0,0,0,.25-2.3c0-.74,0-1.48-.09-2.22a11.25,11.25,0,0,1-.18-2.23c0-.1.17-.34.29-.21a2.53,2.53,0,0,1,.39,1c.11.4.21.81.29,1.22a10.67,10.67,0,0,1,.18,2.26c.49-1.1,1-2.18,1.54-3.26.32-1.28.66-2.57.87-3.88.15-.94.29-1.9.38-2.85a19.24,19.24,0,0,1,.34-3.3c0-.09.18-.26.26-.11a6.87,6.87,0,0,1,.32,3,20.35,20.35,0,0,1-.3,3.12c0,.2-.07.4-.11.6a66.4,66.4,0,0,1,6.88-10.76c.12-.16.27,0,.19.15-2,4.16-4.66,8-6.8,12.11-.41.79-.79,1.58-1.17,2.37a13,13,0,0,1,1.95-1.51,6.75,6.75,0,0,1,2.42-1.07c.25,0,.12.34,0,.42-.73.51-1.53.91-2.25,1.43a13.92,13.92,0,0,0-1.79,1.55c-.51.51-1,1-1.46,1.59-.46,1.06-1.12,2.74-1.79,4.5a55.29,55.29,0,0,0-3.52,16.95,88.77,88.77,0,0,0,.14,11.1l-1.21.3S423,382.9,426.05,372.18Z" style="fill:#C53F3F"></path><path d="M445,395.2c-2.1.07-3.92-.68-5.39-3.33,1.3-2.6,3-3.62,5.14-3.69a3.52,3.52,0,1,1,.25,7Z" style="fill:#C53F3F"></path><path d="M437.4,403c-1.53-1.44-2.27-3.26-1.41-6.17,2.76-.9,4.7-.38,6.23,1.07a3.52,3.52,0,1,1-4.82,5.1Z" style="fill:#C53F3F"></path><path d="M437.84,398.66a3.19,3.19,0,0,0-1-1.46,9,9,0,0,0-1.18-1,12.52,12.52,0,0,0-3-1.67,12.8,12.8,0,0,0-3.1-.83l1.06-.35a23.14,23.14,0,0,1,3.95-.84c1.28-.16,2.56-.17,3.85-.22a7.12,7.12,0,0,0,3.44-.71c.08-.05.05-.12,0-.13a9.13,9.13,0,0,0-2.09,0c-.65,0-1.29,0-1.94,0a29.11,29.11,0,0,0-3.61.29l.76-.46a9.64,9.64,0,0,0,3.52-3.54c.1-.2-.27-.11-.33-.06-1.08.91-2,1.94-3.2,2.75a22.92,22.92,0,0,1-3.41,1.84c-1.26.33-5.65.92-6.78,1.54h0l.39.92c.38,0,3.91-.14,4.28-.08a12.21,12.21,0,0,1,3.07.92,15.08,15.08,0,0,1,2.67,1.47c.39.28.77.58,1.14.89s.75.79,1.2.9C437.65,398.85,437.85,398.78,437.84,398.66Z" style="fill:#C53F3F"></path><g style="opacity:0.35000000000000003"><path d="M445,395.2c-2.1.07-3.92-.68-5.39-3.33,1.3-2.6,3-3.62,5.14-3.69a3.52,3.52,0,1,1,.25,7Z" style="fill:#fff"></path><path d="M437.4,403c-1.53-1.44-2.27-3.26-1.41-6.17,2.76-.9,4.7-.38,6.23,1.07a3.52,3.52,0,1,1-4.82,5.1Z" style="fill:#fff"></path><path d="M437.84,398.66a3.19,3.19,0,0,0-1-1.46,9,9,0,0,0-1.18-1,12.52,12.52,0,0,0-3-1.67,12.8,12.8,0,0,0-3.1-.83l1.06-.35a23.14,23.14,0,0,1,3.95-.84c1.28-.16,2.56-.17,3.85-.22a7.12,7.12,0,0,0,3.44-.71c.08-.05.05-.12,0-.13a9.13,9.13,0,0,0-2.09,0c-.65,0-1.29,0-1.94,0a29.11,29.11,0,0,0-3.61.29l.76-.46a9.64,9.64,0,0,0,3.52-3.54c.1-.2-.27-.11-.33-.06-1.08.91-2,1.94-3.2,2.75a22.92,22.92,0,0,1-3.41,1.84c-1.26.33-5.65.92-6.78,1.54h0l.39.92c.38,0,3.91-.14,4.28-.08a12.21,12.21,0,0,1,3.07.92,15.08,15.08,0,0,1,2.67,1.47c.39.28.77.58,1.14.89s.75.79,1.2.9C437.65,398.85,437.85,398.78,437.84,398.66Z" style="fill:#fff"></path></g></g></g><g id="freepik--plant-1--inject-51"><g id="freepik--plants--inject-51"><path d="M47,346.29c1.6,1.36,2.44,3.14,1.74,6.08-2.71,1.05-4.68.63-6.28-.73A3.52,3.52,0,1,1,47,346.29Z" style="fill:#C53F3F"></path><path d="M45.09,358c2.09-.15,3.94.52,5.51,3.11-1.2,2.65-2.89,3.74-5,3.9a3.53,3.53,0,1,1-.52-7Z" style="fill:#C53F3F"></path><path d="M58.48,368.48c1.79,1.11,2.89,2.74,2.63,5.75-2.52,1.45-4.53,1.33-6.32.23a3.52,3.52,0,1,1,3.69-6Z" style="fill:#C53F3F"></path><path d="M63.2,350.15c0,2.1-.8,3.89-3.49,5.28-2.56-1.38-3.53-3.15-3.54-5.25a3.53,3.53,0,1,1,7,0Z" style="fill:#C53F3F"></path><path d="M73.52,360.69c-.29,2.08-1.34,3.74-4.21,4.73-2.33-1.73-3-3.62-2.75-5.7a3.52,3.52,0,1,1,7,1Z" style="fill:#C53F3F"></path><path d="M53.56,357.14a60.67,60.67,0,0,1,6.07,6.14,50.12,50.12,0,0,1,5.29,7.49,42.34,42.34,0,0,1,2.26,4.52c.33.77.59,1.62.88,2.45l-.76-.43-3.93-2.22a36.33,36.33,0,0,1-3.36-2c-.24-.16-.2.27-.09.38a15.43,15.43,0,0,0,3.48,2.38l3.94,2.25,1.14.64c.36.21.55.3.84.46,1.24.67,5.46,2.49,6.79,3l.32-.68a64.34,64.34,0,0,1-7.32-3.2c-.08-.26-.18-.52-.26-.77-.27-.76-.56-1.51-.87-2.26-.59-1.41-1.26-2.8-2-4.15a49.18,49.18,0,0,0-5.26-7.7,59.51,59.51,0,0,0-6.08-6.32c-1.18-1.07-2.41-2.08-3.67-3.06a22.24,22.24,0,0,0-4.21-2.78c-.08,0-.06.14,0,.17C48.87,353.49,51.34,355.19,53.56,357.14Z" style="fill:#C53F3F"></path><path d="M51.37,346.17c-.08-.11-.19,0-.17.1a13.82,13.82,0,0,0,.66,2.34c.31.95.65,1.9.94,2.86.62,2,1.08,4.12,1.6,6.19.1.38.81.6.74.07a31.15,31.15,0,0,0-1.29-5.64A20.6,20.6,0,0,0,51.37,346.17Z" style="fill:#C53F3F"></path><path d="M59.24,353.48c-.07-.14-.23-.09-.2.06.09.47.11.92.22,1.39s.23,1,.35,1.49c.22.94.45,1.88.62,2.83.33,1.85.55,3.72.85,5.58,0,.24.48.47.5.11a23,23,0,0,0-.51-5.73c-.18-.94-.38-1.88-.65-2.8A19.08,19.08,0,0,0,59.24,353.48Z" style="fill:#C53F3F"></path><path d="M58.59,362.37a18.5,18.5,0,0,0-3.08-1.1,17.11,17.11,0,0,0-3.33-.53,8.84,8.84,0,0,0-3.4.25c-.18.07,0,.39.13.4,1.09.08,2.19,0,3.28.1a20.32,20.32,0,0,1,3,.46,17.67,17.67,0,0,1,2.92.92c.43.18.85.37,1.26.58a7.12,7.12,0,0,1,.67.36c.2.14.35.34.55.48s.23.09.27,0C61.1,363.34,59.21,362.65,58.59,362.37Z" style="fill:#C53F3F"></path><path d="M69.44,364.19a.1.1,0,0,0-.09,0c-.33.14-.24.66-.27,1s-.12.88-.19,1.31a18.63,18.63,0,0,1-.61,2.53,19.16,19.16,0,0,1-1,2.5c-.3.62-1,1.61-.6,2.31.06.12.31.33.45.19.29-.28.35-.78.51-1.14s.39-.78.58-1.18a18.42,18.42,0,0,0,1-2.5,17.3,17.3,0,0,0,.56-2.59C69.84,365.86,70.05,364.71,69.44,364.19Z" style="fill:#C53F3F"></path><g style="opacity:0.55"><path d="M47,346.29c1.6,1.36,2.44,3.14,1.74,6.08-2.71,1.05-4.68.63-6.28-.73A3.52,3.52,0,1,1,47,346.29Z" style="fill:#fff"></path><path d="M45.09,358c2.09-.15,3.94.52,5.51,3.11-1.2,2.65-2.89,3.74-5,3.9a3.53,3.53,0,1,1-.52-7Z" style="fill:#fff"></path><path d="M58.48,368.48c1.79,1.11,2.89,2.74,2.63,5.75-2.52,1.45-4.53,1.33-6.32.23a3.52,3.52,0,1,1,3.69-6Z" style="fill:#fff"></path><path d="M63.2,350.15c0,2.1-.8,3.89-3.49,5.28-2.56-1.38-3.53-3.15-3.54-5.25a3.53,3.53,0,1,1,7,0Z" style="fill:#fff"></path><path d="M73.52,360.69c-.29,2.08-1.34,3.74-4.21,4.73-2.33-1.73-3-3.62-2.75-5.7a3.52,3.52,0,1,1,7,1Z" style="fill:#fff"></path><path d="M53.56,357.14a60.67,60.67,0,0,1,6.07,6.14,50.12,50.12,0,0,1,5.29,7.49,42.34,42.34,0,0,1,2.26,4.52c.33.77.59,1.62.88,2.45l-.76-.43-3.93-2.22a36.33,36.33,0,0,1-3.36-2c-.24-.16-.2.27-.09.38a15.43,15.43,0,0,0,3.48,2.38l3.94,2.25,1.14.64c.36.21.55.3.84.46,1.24.67,5.46,2.49,6.79,3l.32-.68a64.34,64.34,0,0,1-7.32-3.2c-.08-.26-.18-.52-.26-.77-.27-.76-.56-1.51-.87-2.26-.59-1.41-1.26-2.8-2-4.15a49.18,49.18,0,0,0-5.26-7.7,59.51,59.51,0,0,0-6.08-6.32c-1.18-1.07-2.41-2.08-3.67-3.06a22.24,22.24,0,0,0-4.21-2.78c-.08,0-.06.14,0,.17C48.87,353.49,51.34,355.19,53.56,357.14Z" style="fill:#fff"></path><path d="M51.37,346.17c-.08-.11-.19,0-.17.1a13.82,13.82,0,0,0,.66,2.34c.31.95.65,1.9.94,2.86.62,2,1.08,4.12,1.6,6.19.1.38.81.6.74.07a31.15,31.15,0,0,0-1.29-5.64A20.6,20.6,0,0,0,51.37,346.17Z" style="fill:#fff"></path><path d="M59.24,353.48c-.07-.14-.23-.09-.2.06.09.47.11.92.22,1.39s.23,1,.35,1.49c.22.94.45,1.88.62,2.83.33,1.85.55,3.72.85,5.58,0,.24.48.47.5.11a23,23,0,0,0-.51-5.73c-.18-.94-.38-1.88-.65-2.8A19.08,19.08,0,0,0,59.24,353.48Z" style="fill:#fff"></path><path d="M58.59,362.37a18.5,18.5,0,0,0-3.08-1.1,17.11,17.11,0,0,0-3.33-.53,8.84,8.84,0,0,0-3.4.25c-.18.07,0,.39.13.4,1.09.08,2.19,0,3.28.1a20.32,20.32,0,0,1,3,.46,17.67,17.67,0,0,1,2.92.92c.43.18.85.37,1.26.58a7.12,7.12,0,0,1,.67.36c.2.14.35.34.55.48s.23.09.27,0C61.1,363.34,59.21,362.65,58.59,362.37Z" style="fill:#fff"></path><path d="M69.44,364.19a.1.1,0,0,0-.09,0c-.33.14-.24.66-.27,1s-.12.88-.19,1.31a18.63,18.63,0,0,1-.61,2.53,19.16,19.16,0,0,1-1,2.5c-.3.62-1,1.61-.6,2.31.06.12.31.33.45.19.29-.28.35-.78.51-1.14s.39-.78.58-1.18a18.42,18.42,0,0,0,1-2.5,17.3,17.3,0,0,0,.56-2.59C69.84,365.86,70.05,364.71,69.44,364.19Z" style="fill:#fff"></path></g><path d="M51.72,372.87a46,46,0,0,1,6.22,3.8c3.78,2.75,14.64,14.56,17.72,18l0,0,.75-.37s0,0,0,0c-2.68-3.95-14.3-15.92-18.23-18.6a49.89,49.89,0,0,0-6.13-3.56,25.21,25.21,0,0,0-7.11-2.6c-.17,0-.07.3,0,.34C47.19,371,49.52,371.75,51.72,372.87Z" style="fill:#C53F3F"></path><path d="M49.35,371.59a12,12,0,0,1-9.91-2c-4.24-2.84-8.29-5-8.74-6s6.33-1,11.46.8S48.49,368.86,49.35,371.59Z" style="fill:#C53F3F"></path><path d="M50.48,375.66c-.25-.86-2.95-1.55-7.07-.56s-8.9,3.76-8.9,4.41,6.06,1.29,10.25-.22S50.72,376.46,50.48,375.66Z" style="fill:#C53F3F"></path><path d="M50.14,353.16c-.75,0-1,7,1,11.74,1.78,4.07,3.25,6.07,4.2,6.3a1.16,1.16,0,0,0,0,.18,11.84,11.84,0,0,0,.86,2.26,8.18,8.18,0,0,0,3,3.69c.09.05.08-.1.06-.14-.74-1.24-1.63-2.38-2.28-3.66a18.18,18.18,0,0,1-1-2.55c.77-.85,1.1-3.8-.19-8C54.43,358.38,50.88,353.11,50.14,353.16Z" style="fill:#C53F3F"></path><path d="M61.26,381.27c-.17-.88-2.79-1.84-7-1.26s-9.22,2.88-9.29,3.52,5.9,1.88,10.22.78S61.41,382.09,61.26,381.27Z" style="fill:#C53F3F"></path><path d="M56.88,375a2.83,2.83,0,0,0-1.73-.45,11.74,11.74,0,0,0-2.14.18A20.37,20.37,0,0,0,48.63,376c-.14.06,0,.4.12.38,1.45-.22,2.86-.59,4.3-.86a10.69,10.69,0,0,1,2-.22,7.86,7.86,0,0,1,1,0c.26,0,.66.12.89-.06S56.94,375,56.88,375Z" style="fill:#C53F3F"></path><path d="M61.67,380.72a9,9,0,0,0-1.72.2,5.77,5.77,0,0,0-1.61.59c-.13.06,0,.32.09.3a32.49,32.49,0,0,1,3.25-.32,9.91,9.91,0,0,1,1.54.05,2.31,2.31,0,0,1,1.17.4c.28.2.58,0,.39-.33C64.21,380.64,62.62,380.71,61.67,380.72Z" style="fill:#C53F3F"></path><path d="M67,384.43l.8.09c1-.9,2.07-5.07,1.46-9.09-.71-4.7-3-8.13-3.52-8.37s-2.48,5.24-1.49,10.61A16.15,16.15,0,0,0,67,384.43Z" style="fill:#C53F3F"></path><g style="opacity:0.15"><path d="M51.72,372.87a46,46,0,0,1,6.22,3.8c3.78,2.75,14.64,14.56,17.72,18l0,0,.75-.37s0,0,0,0c-2.68-3.95-14.3-15.92-18.23-18.6a49.89,49.89,0,0,0-6.13-3.56,25.21,25.21,0,0,0-7.11-2.6c-.17,0-.07.3,0,.34C47.19,371,49.52,371.75,51.72,372.87Z"></path><path d="M49.35,371.59a12,12,0,0,1-9.91-2c-4.24-2.84-8.29-5-8.74-6s6.33-1,11.46.8S48.49,368.86,49.35,371.59Z"></path><path d="M50.48,375.66c-.25-.86-2.95-1.55-7.07-.56s-8.9,3.76-8.9,4.41,6.06,1.29,10.25-.22S50.72,376.46,50.48,375.66Z"></path><path d="M50.14,353.16c-.75,0-1,7,1,11.74,1.78,4.07,3.25,6.07,4.2,6.3a1.16,1.16,0,0,0,0,.18,11.84,11.84,0,0,0,.86,2.26,8.18,8.18,0,0,0,3,3.69c.09.05.08-.1.06-.14-.74-1.24-1.63-2.38-2.28-3.66a18.18,18.18,0,0,1-1-2.55c.77-.85,1.1-3.8-.19-8C54.43,358.38,50.88,353.11,50.14,353.16Z"></path><path d="M61.26,381.27c-.17-.88-2.79-1.84-7-1.26s-9.22,2.88-9.29,3.52,5.9,1.88,10.22.78S61.41,382.09,61.26,381.27Z"></path><path d="M56.88,375a2.83,2.83,0,0,0-1.73-.45,11.74,11.74,0,0,0-2.14.18A20.37,20.37,0,0,0,48.63,376c-.14.06,0,.4.12.38,1.45-.22,2.86-.59,4.3-.86a10.69,10.69,0,0,1,2-.22,7.86,7.86,0,0,1,1,0c.26,0,.66.12.89-.06S56.94,375,56.88,375Z"></path><path d="M61.67,380.72a9,9,0,0,0-1.72.2,5.77,5.77,0,0,0-1.61.59c-.13.06,0,.32.09.3a32.49,32.49,0,0,1,3.25-.32,9.91,9.91,0,0,1,1.54.05,2.31,2.31,0,0,1,1.17.4c.28.2.58,0,.39-.33C64.21,380.64,62.62,380.71,61.67,380.72Z"></path><path d="M67,384.43l.8.09c1-.9,2.07-5.07,1.46-9.09-.71-4.7-3-8.13-3.52-8.37s-2.48,5.24-1.49,10.61A16.15,16.15,0,0,0,67,384.43Z"></path></g><path d="M63.47,348.33a11.93,11.93,0,0,1-7.1-7.21c-1.94-4.73-4.12-8.74-3.9-9.88s5.83,2.66,9.08,7S64.27,345.58,63.47,348.33Z" style="fill:#C53F3F"></path><path d="M68,352c.88.43,2.82-3.75,2.67-7.95s-1.77-7.42-2.24-7.69-2.7,5.93-2.41,9.18S67.41,351.68,68,352Z" style="fill:#C53F3F"></path><path d="M71.79,361c.87.68,3.95-3.49,4.74-8.18s-.28-8.65-.74-9.06-4.31,5.94-4.72,9.62S71.24,360.59,71.79,361Z" style="fill:#C53F3F"></path><path d="M67.06,358.92c.83-.71-2.65-4.56-7.1-6.26s-8.53-1.44-9-1.06,3.34,4.75,8.5,6.52C62.94,359.33,66.52,359.38,67.06,358.92Z" style="fill:#C53F3F"></path><path d="M75,372.18c-.33-1.11-1.64-5.06-2.16-6.48-.06-.19-.14-.51-.2-.71a16,16,0,0,1-.25-2.3c0-.74,0-1.48.09-2.22a11.25,11.25,0,0,0,.18-2.23c0-.1-.17-.34-.28-.21a2.4,2.4,0,0,0-.4,1c-.11.4-.2.81-.29,1.22a10.67,10.67,0,0,0-.18,2.26c-.49-1.1-1-2.18-1.54-3.26-.32-1.28-.66-2.57-.87-3.88-.15-.94-.29-1.9-.38-2.85a19.24,19.24,0,0,0-.34-3.3c0-.09-.18-.26-.26-.11a6.87,6.87,0,0,0-.32,3,20.35,20.35,0,0,0,.3,3.12c0,.2.07.4.11.6a66.35,66.35,0,0,0-6.87-10.76c-.13-.16-.28,0-.2.15,2,4.16,4.66,8,6.81,12.11.4.79.78,1.58,1.16,2.37a13.46,13.46,0,0,0-1.94-1.51,6.87,6.87,0,0,0-2.43-1.07c-.25,0-.12.34,0,.42.73.51,1.53.91,2.25,1.43a13.92,13.92,0,0,1,1.79,1.55,19.92,19.92,0,0,1,1.46,1.59c.47,1.06,1.12,2.74,1.79,4.5a55.29,55.29,0,0,1,3.52,16.95,88.77,88.77,0,0,1-.14,11.1l1.21.3S78,382.9,75,372.18Z" style="fill:#C53F3F"></path><path d="M56,395.2c2.1.07,3.92-.68,5.39-3.33-1.3-2.6-3-3.62-5.14-3.69a3.52,3.52,0,1,0-.25,7Z" style="fill:#C53F3F"></path><path d="M63.64,403c1.52-1.44,2.26-3.26,1.41-6.17-2.77-.9-4.71-.38-6.24,1.07a3.52,3.52,0,1,0,4.83,5.1Z" style="fill:#C53F3F"></path><path d="M63.2,398.66a3,3,0,0,1,1-1.46,8.28,8.28,0,0,1,1.17-1,12.52,12.52,0,0,1,3-1.67,12.8,12.8,0,0,1,3.1-.83l-1.06-.35a23.14,23.14,0,0,0-3.95-.84c-1.28-.16-2.56-.17-3.84-.22a7.16,7.16,0,0,1-3.45-.71c-.08-.05,0-.12,0-.13a9.13,9.13,0,0,1,2.09,0c.65,0,1.3,0,1.94,0a29.11,29.11,0,0,1,3.61.29c-.26-.15-.51-.3-.75-.46a9.67,9.67,0,0,1-3.53-3.54c-.1-.2.27-.11.34-.06a42.11,42.11,0,0,0,3.2,2.75,22.82,22.82,0,0,0,3.4,1.84c1.26.33,5.65.92,6.78,1.54h0l-.39.92c-.38,0-3.91-.14-4.28-.08a12.21,12.21,0,0,0-3.07.92A15.08,15.08,0,0,0,65.81,397c-.39.28-.77.58-1.14.89s-.75.79-1.2.9C63.38,398.85,63.18,398.78,63.2,398.66Z" style="fill:#C53F3F"></path><g style="opacity:0.35000000000000003"><path d="M56,395.2c2.1.07,3.92-.68,5.39-3.33-1.3-2.6-3-3.62-5.14-3.69a3.52,3.52,0,1,0-.25,7Z" style="fill:#fff"></path><path d="M63.64,403c1.52-1.44,2.26-3.26,1.41-6.17-2.77-.9-4.71-.38-6.24,1.07a3.52,3.52,0,1,0,4.83,5.1Z" style="fill:#fff"></path><path d="M63.2,398.66a3,3,0,0,1,1-1.46,8.28,8.28,0,0,1,1.17-1,12.52,12.52,0,0,1,3-1.67,12.8,12.8,0,0,1,3.1-.83l-1.06-.35a23.14,23.14,0,0,0-3.95-.84c-1.28-.16-2.56-.17-3.84-.22a7.16,7.16,0,0,1-3.45-.71c-.08-.05,0-.12,0-.13a9.13,9.13,0,0,1,2.09,0c.65,0,1.3,0,1.94,0a29.11,29.11,0,0,1,3.61.29c-.26-.15-.51-.3-.75-.46a9.67,9.67,0,0,1-3.53-3.54c-.1-.2.27-.11.34-.06a42.11,42.11,0,0,0,3.2,2.75,22.82,22.82,0,0,0,3.4,1.84c1.26.33,5.65.92,6.78,1.54h0l-.39.92c-.38,0-3.91-.14-4.28-.08a12.21,12.21,0,0,0-3.07.92A15.08,15.08,0,0,0,65.81,397c-.39.28-.77.58-1.14.89s-.75.79-1.2.9C63.38,398.85,63.18,398.78,63.2,398.66Z" style="fill:#fff"></path></g></g></g><g id="freepik--Snowflakes--inject-51"><g id="freepik--Snow--inject-51"><path d="M447.11,180.2A1.19,1.19,0,0,0,446,181h-3.22l4-4.83a.36.36,0,0,0,0-.52.37.37,0,0,0-.52,0l-4,4.76v-4.68a1.19,1.19,0,0,0,.82-1.12,1.2,1.2,0,1,0-2.39,0,1.19,1.19,0,0,0,.82,1.12v4.68l-4-4.76a.37.37,0,0,0-.52,0,.37.37,0,0,0-.05.52L441,181h-3.22a1.19,1.19,0,1,0-1.13,1.56,1.2,1.2,0,0,0,1.13-.82h3.39l-4.22,5a.37.37,0,0,0,.05.52.38.38,0,0,0,.24.09.37.37,0,0,0,.28-.14l4-4.75V187a1.2,1.2,0,1,0,.75,0v-4.47l4,4.75a.35.35,0,0,0,.28.14.38.38,0,0,0,.24-.09.36.36,0,0,0,0-.52l-4.21-5H446a1.2,1.2,0,0,0,1.13.82,1.19,1.19,0,0,0,0-2.38Z" style="fill:#e0e0e0"></path><path d="M479.26,257.29a1.17,1.17,0,0,0-1.12.82h-3.23l4-4.83a.37.37,0,0,0-.57-.47l-4,4.75v-4.67a1.19,1.19,0,1,0-.74,0v4.67l-4-4.75a.37.37,0,1,0-.57.47l4,4.83h-3.23a1.17,1.17,0,0,0-1.12-.82,1.19,1.19,0,1,0,0,2.38,1.17,1.17,0,0,0,1.12-.82h3.4l-4.22,5a.37.37,0,0,0,0,.52.36.36,0,0,0,.24.09.39.39,0,0,0,.28-.13l4-4.76v4.47a1.19,1.19,0,1,0,.74,0V259.6l4,4.76a.39.39,0,0,0,.29.13.35.35,0,0,0,.23-.09.37.37,0,0,0,0-.52l-4.22-5h3.4a1.17,1.17,0,0,0,1.12.82,1.19,1.19,0,1,0,0-2.38Z" style="fill:#e0e0e0"></path><path d="M269,186.45a1.2,1.2,0,0,0-1.13.82H264.6l4-4.82a.38.38,0,0,0,0-.53.37.37,0,0,0-.52.05l-4,4.75v-4.67a1.2,1.2,0,0,0,.82-1.13,1.2,1.2,0,1,0-1.56,1.13v4.67l-4-4.75a.37.37,0,1,0-.57.48l4,4.82h-3.23a1.2,1.2,0,0,0-1.13-.82,1.2,1.2,0,1,0,1.13,1.56H263l-4.21,5a.37.37,0,0,0,0,.52.38.38,0,0,0,.53,0l4-4.76v4.48a1.18,1.18,0,0,0-.83,1.12,1.2,1.2,0,1,0,2.39,0,1.19,1.19,0,0,0-.82-1.12v-4.48l4,4.76a.35.35,0,0,0,.28.13.36.36,0,0,0,.24-.09.37.37,0,0,0,0-.52l-4.22-5h3.39a1.19,1.19,0,1,0,1.13-1.56Z" style="fill:#e0e0e0"></path><path d="M316.85,136.69a1.2,1.2,0,0,0-1.13.82H312.5l4.05-4.82a.37.37,0,0,0-.05-.52.36.36,0,0,0-.52,0L312,137v-4.68a1.19,1.19,0,0,0-.37-2.32,1.2,1.2,0,0,0-1.2,1.19,1.19,1.19,0,0,0,.82,1.13V137l-4-4.76a.37.37,0,0,0-.56.48l4,4.82h-3.22a1.2,1.2,0,1,0,0,.75h3.39l-4.21,5a.37.37,0,0,0,0,.53.43.43,0,0,0,.24.08.34.34,0,0,0,.28-.13l4-4.75v4.47a1.2,1.2,0,1,0,.75,0V139l4,4.75a.34.34,0,0,0,.28.13.43.43,0,0,0,.24-.08.38.38,0,0,0,.05-.53l-4.22-5h3.39a1.19,1.19,0,1,0,1.13-1.57Z" style="fill:#e0e0e0"></path><path d="M39.74,258.64a1.17,1.17,0,0,0-1.12.82H35.39l4-4.83a.37.37,0,1,0-.57-.47l-4,4.75v-4.67a1.19,1.19,0,1,0-.74,0v4.67l-4-4.75a.37.37,0,1,0-.57.47l4.05,4.83H30.4a1.17,1.17,0,0,0-1.12-.82,1.19,1.19,0,1,0,0,2.38,1.17,1.17,0,0,0,1.12-.82h3.4l-4.22,5a.37.37,0,0,0,.05.52.33.33,0,0,0,.23.09.41.41,0,0,0,.29-.13l4-4.76v4.47a1.19,1.19,0,1,0,.74,0V261l4,4.76a.39.39,0,0,0,.28.13.36.36,0,0,0,.24-.09.37.37,0,0,0,0-.52l-4.22-5h3.4a1.17,1.17,0,0,0,1.12.82,1.19,1.19,0,1,0,0-2.38Z" style="fill:#e0e0e0"></path><path d="M39.05,33.75a1.19,1.19,0,0,0-1.12.82H34.7l4-4.82a.37.37,0,0,0,0-.52.36.36,0,0,0-.52,0l-4,4.76V29.35a1.19,1.19,0,1,0-.74,0V34l-4-4.76a.36.36,0,0,0-.52,0,.37.37,0,0,0-.05.52l4,4.82H29.71a1.19,1.19,0,0,0-1.12-.82,1.2,1.2,0,1,0,0,2.39,1.19,1.19,0,0,0,1.12-.82h3.4l-4.22,5a.38.38,0,0,0,.05.53.4.4,0,0,0,.23.08.36.36,0,0,0,.29-.13l4-4.75v4.47a1.19,1.19,0,1,0,.74,0V36.07l4,4.75a.36.36,0,0,0,.29.13.4.4,0,0,0,.23-.08.38.38,0,0,0,0-.53l-4.22-5h3.4a1.19,1.19,0,0,0,1.12.82,1.2,1.2,0,1,0,0-2.39Z" style="fill:#e0e0e0"></path><path d="M343.43,65.73a1.2,1.2,0,0,0-1.13.82h-3.23l4.05-4.82a.37.37,0,0,0,0-.52.37.37,0,0,0-.53,0l-4,4.76V61.33a1.17,1.17,0,0,0,.82-1.12,1.19,1.19,0,1,0-1.56,1.12V66l-4-4.76a.36.36,0,0,0-.52,0,.37.37,0,0,0-.05.52l4.05,4.82h-3.22a1.2,1.2,0,1,0,0,.75h3.39l-4.22,5a.38.38,0,0,0,.05.53.35.35,0,0,0,.24.08.35.35,0,0,0,.28-.13l4-4.75v4.47a1.19,1.19,0,1,0,1.56,1.13,1.19,1.19,0,0,0-.82-1.13V68.05l4,4.75a.37.37,0,0,0,.29.13.37.37,0,0,0,.24-.08.39.39,0,0,0,0-.53l-4.22-5h3.4a1.19,1.19,0,1,0,1.13-1.57Z" style="fill:#e0e0e0"></path><path d="M446.51,48.37a1.2,1.2,0,0,0-1.13.82h-3.22l4-4.82a.37.37,0,0,0,0-.52.36.36,0,0,0-.52,0l-4,4.76V44a1.2,1.2,0,1,0-.74,0v4.68l-4-4.76a.37.37,0,0,0-.53,0,.37.37,0,0,0,0,.52l4,4.82h-3.23a1.2,1.2,0,1,0,0,.75h3.4l-4.22,5a.39.39,0,0,0,0,.53.43.43,0,0,0,.24.08.37.37,0,0,0,.29-.13l4-4.75v4.47a1.19,1.19,0,0,0-.83,1.13,1.2,1.2,0,1,0,1.57-1.13V50.69l4,4.75a.35.35,0,0,0,.28.13.41.41,0,0,0,.24-.08.38.38,0,0,0,0-.53l-4.22-5h3.39a1.19,1.19,0,1,0,1.13-1.57Z" style="fill:#e0e0e0"></path><path d="M234.23,111.9a1.19,1.19,0,0,0-1.12.82h-3.23l4.05-4.82a.38.38,0,0,0-.05-.53.37.37,0,0,0-.52,0l-4,4.75V107.5a1.19,1.19,0,1,0-.74,0v4.68l-4-4.76a.37.37,0,0,0-.52,0,.38.38,0,0,0-.05.53l4.05,4.82h-3.23a1.19,1.19,0,0,0-1.12-.82,1.2,1.2,0,1,0,0,2.39,1.19,1.19,0,0,0,1.12-.82h3.4l-4.22,5a.38.38,0,0,0,.05.53.4.4,0,0,0,.23.08.36.36,0,0,0,.29-.13l4-4.76v4.48a1.17,1.17,0,0,0-.82,1.12,1.19,1.19,0,1,0,2.38,0,1.17,1.17,0,0,0-.82-1.12v-4.47l4,4.75a.35.35,0,0,0,.28.13.41.41,0,0,0,.24-.08.38.38,0,0,0,.05-.53l-4.22-5h3.4a1.19,1.19,0,0,0,1.12.82,1.2,1.2,0,1,0,0-2.39Z" style="fill:#e0e0e0"></path><path d="M215.78,61.38a1.19,1.19,0,0,0-1.13.82h-3.23l4.05-4.83a.38.38,0,0,0,0-.52.38.38,0,0,0-.53,0l-4,4.75V57a1.19,1.19,0,1,0-.74,0v4.67l-4-4.75a.37.37,0,1,0-.57.47l4,4.83h-3.22a1.19,1.19,0,1,0,0,.74h3.39l-4.22,5a.37.37,0,0,0,0,.52.36.36,0,0,0,.24.09.39.39,0,0,0,.28-.13l4-4.76v4.47a1.2,1.2,0,0,0-.82,1.13,1.2,1.2,0,1,0,1.56-1.13V63.69l4,4.76a.41.41,0,0,0,.29.13.37.37,0,0,0,.28-.61l-4.22-5h3.4a1.19,1.19,0,1,0,1.13-1.56Z" style="fill:#e0e0e0"></path><path d="M267.62,62a1.4,1.4,0,1,1,1.39,1.4A1.4,1.4,0,0,1,267.62,62Z" style="fill:#e0e0e0"></path><circle cx="185.69" cy="103.03" r="1.4" style="fill:#e0e0e0"></circle><path d="M84.16,25.64A1.4,1.4,0,1,1,85.55,27,1.4,1.4,0,0,1,84.16,25.64Z" style="fill:#e0e0e0"></path><path d="M329.83,108.67a1.4,1.4,0,1,1,1.4,1.4A1.4,1.4,0,0,1,329.83,108.67Z" style="fill:#e0e0e0"></path><path d="M206.32,20.5a1.4,1.4,0,0,1,2.79,0,1.4,1.4,0,1,1-2.79,0Z" style="fill:#e0e0e0"></path><path d="M24.52,140a1.4,1.4,0,1,1,1.4,1.4A1.4,1.4,0,0,1,24.52,140Z" style="fill:#e0e0e0"></path><circle cx="74.62" cy="76.23" r="1.4" style="fill:#e0e0e0"></circle><circle cx="31.41" cy="76.23" r="1.4" style="fill:#e0e0e0"></circle><circle cx="148.29" cy="72.1" r="1.4" style="fill:#e0e0e0"></circle><circle cx="387.32" cy="37.1" r="1.4" style="fill:#e0e0e0"></circle><path d="M484.19,136.82a1.4,1.4,0,1,1,1.4,1.39A1.4,1.4,0,0,1,484.19,136.82Z" style="fill:#e0e0e0"></path><path d="M476.07,24.24a1.4,1.4,0,1,1,1.39,1.4A1.39,1.39,0,0,1,476.07,24.24Z" style="fill:#e0e0e0"></path><circle cx="457.15" cy="100.24" r="1.4" style="fill:#e0e0e0"></circle><circle cx="480.46" cy="71.48" r="1.4" style="fill:#e0e0e0"></circle><path d="M318.81,26.21a1.4,1.4,0,1,1,1.39,1.4A1.39,1.39,0,0,1,318.81,26.21Z" style="fill:#e0e0e0"></path><path d="M148.44,36.92a1.4,1.4,0,1,1,1.39,1.4A1.4,1.4,0,0,1,148.44,36.92Z" style="fill:#e0e0e0"></path><circle cx="439.51" cy="142.45" r="1.4" style="fill:#e0e0e0"></circle><circle cx="242.71" cy="153.4" r="1.4" style="fill:#e0e0e0"></circle><circle cx="188.91" cy="146.19" r="1.4" style="fill:#e0e0e0"></circle><circle cx="469.34" cy="212.81" r="1.4" style="fill:#e0e0e0"></circle><circle cx="435.45" cy="235.98" r="1.4" style="fill:#e0e0e0"></circle><path d="M52.55,173.6a1.19,1.19,0,0,1,1.13.82H56.9l-4-4.83a.37.37,0,0,1,0-.52.37.37,0,0,1,.52,0l4,4.76V169.2a1.2,1.2,0,0,1-.82-1.13,1.19,1.19,0,1,1,1.56,1.13v4.67l4-4.76a.39.39,0,0,1,.53,0,.38.38,0,0,1,0,.52l-4.05,4.83h3.23a1.19,1.19,0,1,1,0,.74h-3.4l4.22,5a.37.37,0,0,1-.28.61.38.38,0,0,1-.29-.14l-4-4.75v4.47a1.19,1.19,0,1,1-1.56,1.13,1.2,1.2,0,0,1,.82-1.13v-4.47l-4,4.75a.37.37,0,0,1-.28.14.36.36,0,0,1-.24-.09.37.37,0,0,1,0-.52l4.22-5H53.68a1.19,1.19,0,1,1-1.13-1.56Z" style="fill:#e0e0e0"></path><circle cx="61.92" cy="116.28" r="1.4" style="fill:#e0e0e0"></circle><path d="M35.08,210.29a1.4,1.4,0,1,0-1.39,1.39A1.4,1.4,0,0,0,35.08,210.29Z" style="fill:#e0e0e0"></path><path d="M69,233.46a1.4,1.4,0,1,0-1.39,1.39A1.4,1.4,0,0,0,69,233.46Z" style="fill:#e0e0e0"></path></g></g><g id="freepik--character-2--inject-51"><g id="freepik--Elf--inject-51"><g id="freepik--Bottom--inject-51"><g id="freepik--bottom--inject-51"><path d="M405.49,230.24c3.43,8.61,5.47,20,5.62,38.46s-.27,33.13-.13,50.66a130.26,130.26,0,0,1,4.65,28.33c.67,10.68-1.33,29,.86,40.57l.33,1.93c-1.73,7.7-12.1,9.62-13.6,5,0,0-14.23-43.75-19.23-59.14-2.91-9-5.91-19-12.21-45.52l-7.12,32.37s1,14.44-.44,26.69c-1.36,11.41-7.6,24.64-9.61,36.11-.05,1.67-2.47,3.82-2.52,5.49,0,.48-1.36,2-6.25,2.62s-8.19-2.59-8.25-3.27c-.15-1.57-1.71-43.22-2.43-63.52s2.29-73,5.66-92.83Z" style="fill:#C53F3F"></path><path d="M405.49,230.24c3.43,8.61,5.47,20,5.62,38.46s-.27,33.13-.13,50.66a130.26,130.26,0,0,1,4.65,28.33c.67,10.68-1.33,29,.86,40.57l.33,1.93c-1.73,7.7-12.1,9.62-13.6,5,0,0-14.23-43.75-19.23-59.14-2.91-9-5.91-19-12.21-45.52l-7.12,32.37s1,14.44-.44,26.69c-1.36,11.41-7.6,24.64-9.61,36.11-.05,1.67-2.47,3.82-2.52,5.49,0,.48-1.36,2-6.25,2.62s-8.19-2.59-8.25-3.27c-.15-1.57-1.71-43.22-2.43-63.52s2.29-73,5.66-92.83Z" style="fill:#fff;opacity:0.8"></path><path d="M373.67,294.13a32.89,32.89,0,0,0,32-1,34.09,34.09,0,0,0,3.51-2.49c0,1-.11,2-.16,3a35.53,35.53,0,0,1-36.47,3.31c-.12-.86-.24-1.73-.35-2.61A1.46,1.46,0,0,1,373.67,294.13Z" style="fill:#C53F3F"></path><path d="M377.37,313.23a21.38,21.38,0,0,0,4.75,1.5,40.7,40.7,0,0,0,13.15.66,22,22,0,0,0,10.52-4.09,24.22,24.22,0,0,0,4.73-4.42s.06-1.31.07-1.33c.09-1.24.13-1.9.21-3.14-1.43,2.43-8.14,8.37-15.67,9.47-3.35.49-14,.52-18.94-3.27C376.6,310.24,377,311.77,377.37,313.23Z" style="fill:#C53F3F"></path><path d="M415.5,377.68c0-.95,0-1.91-.05-2.88-.34.37-.7.72-1.07,1.06a17.3,17.3,0,0,1-5.71,3.44,18.69,18.69,0,0,1-7.08,1.09,19.84,19.84,0,0,1-3.34-.44l1,3v0c.47.05.93.11,1.39.13a20.17,20.17,0,0,0,8.53-1.43A20.85,20.85,0,0,0,415.5,377.68Z" style="fill:#C53F3F"></path><path d="M395.45,333.05c6.68-.25,13.34-2.39,17.11-7.5,0-.07,0-.14,0-.21-.3-.79-.58-1.53-.84-2.2a15.92,15.92,0,0,1-5.61,4.89,24.83,24.83,0,0,1-10.44,2,33.6,33.6,0,0,1-9.89-1.18,43.48,43.48,0,0,1-4.51-1.62c.36,1.23.72,2.39,1.06,3.5A30.52,30.52,0,0,0,395.45,333.05Z" style="fill:#C53F3F"></path><path d="M396.48,367.69a26.66,26.66,0,0,0,10.16-.68,17.61,17.61,0,0,0,9-5.32c0-1.47.07-2.92.1-4.32a17.24,17.24,0,0,1-9.31,6.88,20.52,20.52,0,0,1-9.21.59,23.05,23.05,0,0,1-4.24-1.15l1.14,3.52C394.89,367.4,395.68,367.57,396.48,367.69Z" style="fill:#C53F3F"></path><path d="M388.49,349.93a18,18,0,0,0,2.22.61,35.79,35.79,0,0,0,11.59.32,23.21,23.21,0,0,0,9.45-3.73,21.68,21.68,0,0,0,3.62-2.91c-.09-1.08-.2-2.14-.31-3.16a23.23,23.23,0,0,1-5.19,4.3,20.1,20.1,0,0,1-8.15,2.55,39.8,39.8,0,0,1-10-.43,23.8,23.8,0,0,1-4.37-1.18Z" style="fill:#C53F3F"></path><path d="M349.77,276.32a54.89,54.89,0,0,0,10.68,1.37c3.79.13,7.56-.24,11.35-.17,1.28,0,.15,2-.52,2.15-8.3,2.45-18.29,1.83-26.55-.68a38.91,38.91,0,0,1-8.75-3.78c.14-1.67.28-3.31.43-4.95A20.86,20.86,0,0,0,339,272.1,38.71,38.71,0,0,0,349.77,276.32Z" style="fill:#C53F3F"></path><path d="M340.18,372.38a27,27,0,0,1-3.39-1.31c0,1.17.09,2.31.13,3.42a33,33,0,0,0,8.17,1.84,35.63,35.63,0,0,0,12.1-.86q.46-1.55,1-3.09c-.58.18-1.16.36-1.75.5a30.72,30.72,0,0,1-8.15.84A30.16,30.16,0,0,1,340.18,372.38Z" style="fill:#C53F3F"></path><path d="M362.2,356.64a18.11,18.11,0,0,1-4.15,1.63c-3.21.78-6.69.51-10,.21a38.85,38.85,0,0,1-10.55-2.24c-.43-.17-.86-.35-1.27-.55l.12,3.36a47.18,47.18,0,0,0,12.71,2.3c4.25.28,8.35.08,12.13-1.53.35-.15.69-.32,1-.49.29-1.07.57-2.13.82-3.18A8.3,8.3,0,0,1,362.2,356.64Z" style="fill:#C53F3F"></path><path d="M349.29,343.5a32.33,32.33,0,0,1-13.62-2.33c0,1.16.08,2.33.13,3.52a41,41,0,0,0,13.88,1.64c4.43-.16,11-.78,15.09-3.13.08-1,.08-2,.13-3a19.69,19.69,0,0,1-6.19,2.45A54.65,54.65,0,0,1,349.29,343.5Z" style="fill:#C53F3F"></path><path d="M360.64,297.17a67.83,67.83,0,0,1-12.14-2.95A74.71,74.71,0,0,1,336.59,289l-.59-.35c-.06,1.29-.13,2.56-.19,3.83a74.07,74.07,0,0,0,10.31,4.61,67.43,67.43,0,0,0,13.06,3.24,48.12,48.12,0,0,0,10.3.65l.72-3.28A87.72,87.72,0,0,1,360.64,297.17Z" style="fill:#C53F3F"></path><path d="M364.78,325.22a50.69,50.69,0,0,1-17.79.7,47.18,47.18,0,0,1-11.73-3.33l-.2-.09c0,1.32,0,2.54.07,3.68a51.67,51.67,0,0,0,10,2.6,45.93,45.93,0,0,0,19.79-1C364.85,326.78,364.82,325.93,364.78,325.22Z" style="fill:#C53F3F"></path><path d="M357.17,311.27a47.77,47.77,0,0,1-12.79-2,34,34,0,0,1-9.06-4.34c0,1.43-.08,2.83-.12,4.19a42.41,42.41,0,0,0,8.17,3.31,53.84,53.84,0,0,0,23.33,1.21l.62-2.79C364,311,360.58,311.36,357.17,311.27Z" style="fill:#C53F3F"></path><path d="M350.85,257.32c7.94,2.35,15.91,1.38,23.65-1.07.73-.23.52,1.23.09,1.47-7.88,4.46-17.71,5-26.35,2.34A37.06,37.06,0,0,1,338,255c.17-1.5.34-3,.52-4.39.57.51,1.14,1,1.77,1.49A34.42,34.42,0,0,0,350.85,257.32Z" style="fill:#C53F3F"></path><g style="opacity:0.15"><path d="M371.78,290.56l-2.26-33.39s-13-8.08-16.13-15.44c0,0,.25,11.33,10.22,17.81l3.68,33.5-2.63,29.89Z"></path></g><path d="M308.19,411.33c.37,1.72.52,3.18,4.29,5.63a22.82,22.82,0,0,0,15,2.76c7.33-1.07,9.32-2.5,12.16-4.88s5.46-4.88,8.78-5.66c3.09-.73,7.79-2,8.75-2.94s.65-4.95.65-4.95Z" style="fill:#263238"></path><path d="M354.91,383.75s.42,0,.65,1c.28,1.12.67,4.37,1.24,6.2a43.14,43.14,0,0,1,1,11.75c-.32,2.07-6.72,3.51-9.92,4.76s-5.58,2.91-8.82,5.59a23.21,23.21,0,0,1-13.41,5c-5.53.1-11.51-.52-15.5-4.46a16,16,0,0,1-4.87-14.15,7.74,7.74,0,0,1,2.21-4.21,4.07,4.07,0,0,1,4.93.22c-3.19-.18-3.22,3-1.84,4.92a5.68,5.68,0,0,0,3.66,2.1,11.62,11.62,0,0,0,4.32-.18,22.35,22.35,0,0,0,7.29-2.73,35.36,35.36,0,0,0,5.7-4.38,21.39,21.39,0,0,0,3.22-3.71,10.37,10.37,0,0,0,.93-2.47,22.42,22.42,0,0,0,.65-2.69A1.75,1.75,0,0,1,337,385a1.89,1.89,0,0,1,1.11-.12,32.52,32.52,0,0,1,5.8,1.05,3.69,3.69,0,0,1,2,1.12,2.89,2.89,0,0,1,.45,1.49,10.15,10.15,0,0,0,.12,1.56.87.87,0,0,0,.24.51c.3.27.76,0,1-.19a20.56,20.56,0,0,0,2.18-2.66c.39-.49,2.19-.83,2.68-1.22a14.72,14.72,0,0,0,1.43-.94A2.66,2.66,0,0,0,354.91,383.75Z" style="fill:#455a64"></path><path d="M309,394.48a3.59,3.59,0,0,0,3.44,3.63,3.43,3.43,0,0,0,3.77-3.12,3.6,3.6,0,0,0-3.44-3.64A3.4,3.4,0,0,0,309,394.48Z" style="fill:#C53F3F"></path><path d="M329.46,397.1c.41,1.14,1.94,1.39,3,1.73,1.31.43,2.62.91,4,1.29a4,4,0,0,0,3.59-.59,10.94,10.94,0,0,0,2.37-2.62c.74-1,1.75-2.36.82-3.58a6.71,6.71,0,0,0-2.81-1.75,12.27,12.27,0,0,0-4.13-.75,6,6,0,0,0-3.38.67,11.88,11.88,0,0,0-2.35,2.4C329.88,394.73,329.08,396,329.46,397.1Zm1.65-.5a1.58,1.58,0,0,1,.12-.52,5.94,5.94,0,0,1,1.51-2.12,7.28,7.28,0,0,1,2.06-1.68,3,3,0,0,1,1.16-.21,9.33,9.33,0,0,1,4.65,1.4,3.18,3.18,0,0,1,1.11.66c.25.35-.23.9-.42,1.19s-.52.77-.79,1.14a8.07,8.07,0,0,1-1.85,1.93c-.89.57-1.71.28-2.66,0l-3.12-1-1.49-.48C331.16,396.81,331.13,396.82,331.11,396.6Z" style="fill:#fafafa"></path><path d="M404.32,419.45c.74,4.68,1.82,7.72,3.87,10.31s5.5,3.16,8.86,2.07,7.57-3.6,8.21-7.72.2-6.91-1-11.23Z" style="fill:#263238"></path><path d="M416,385.08c1.25.26,2.58,6.44,4,12.83,1.48,6.82,2.95,8.78,4.22,14.33,1.44,6.3,1.14,8.47-.93,12.51s-10.2,8.46-14.87,3.36c-3.83-4.17-4.25-8.43-4.54-14.81a125.84,125.84,0,0,0-1.48-15.3c-.74-4.83-2.86-9.14-1.66-9.79.16.71,1.86,5.94,2.77,5.26.42-.11.44-.8.22-2.06a2.06,2.06,0,0,1,.25-1.61,2.8,2.8,0,0,1,1.53-.8c1.39-.39,3.3-1,4.73-1.21.83-.15.36-.12,1.2-.24a8,8,0,0,1,3.16-.17c.46.18.54.59.69,1s.32,1.07.52,1.51c.07.17.37.53.57.49s.36-.89.29-1.26-.07-1-.13-1.41S416.24,386.21,416,385.08Z" style="fill:#455a64"></path><path d="M413.17,409.7a9,9,0,0,0,2.17,3.9,5.23,5.23,0,0,0,2.15,1.51,2.82,2.82,0,0,0,2.21-.12c.09-.06.1.11.05.15a2.91,2.91,0,0,1-2.12.7,4.79,4.79,0,0,1-2.68-1.26A9.23,9.23,0,0,1,412,410C411.88,409.4,413,409.13,413.17,409.7Z" style="fill:#37474f"></path><path d="M406.72,409.33a3.41,3.41,0,0,0,3.3,3.59,3.55,3.55,0,0,0,3.88-3.09,3.41,3.41,0,0,0-3.3-3.6A3.56,3.56,0,0,0,406.72,409.33Z" style="fill:#C53F3F"></path><path d="M405.44,401.16a1.76,1.76,0,0,0,.94,1.13,3.43,3.43,0,0,0,1.93,0c1.48-.22,3-.45,4.44-.71a12.58,12.58,0,0,0,3.88-1c1.18-.65,1.25-1.77,1-2.91-.15-.67-.3-1.34-.46-2a4.74,4.74,0,0,0-.5-1.5c-.74-1.16-2.2-.94-3.42-.76-2.46.35-5.57.63-7.77,1.79a1.45,1.45,0,0,0-.58.57C404.08,397.09,405,400,405.44,401.16Zm1.89-5.31a58.4,58.4,0,0,1,7.5-1.45c.56,0,.65.5.75.93.23,1,.52,1.94.67,2.92a1.09,1.09,0,0,1-.39,1.2,3.7,3.7,0,0,1-1.21.46,66.4,66.4,0,0,1-6.57,1.16,6.82,6.82,0,0,1-.89.13c-.24,0-.24,0-.35-.26a8.26,8.26,0,0,1-.35-1.27c-.12-.52-.23-1-.32-1.57C406,396.89,406,396.3,407.33,395.85Z" style="fill:#fafafa"></path></g><path d="M341.16,230.54s-4.59,21.35-6,31.46-2.44,45.34-3,50.45.83,19.63.83,19.63,5.18,4,17.24,4.57,16.08-3.58,16.08-3.58l-.54-10.14,5.95-26s5.41,19.7,7,26.21,2.94,11.36,2.94,11.36,10.06,3.23,18.61,1.25c13.81-3.18,14.2-7,14.2-7l-2-9.87s.32-20.57.59-37.44.61-33-7.35-51.13Z" style="fill:#C53F3F"></path><path d="M371.78,296.93l-5.29-26s-12.17-5.72-16.2-12.48c2.56,9.95,11.83,17.26,11.83,17.26l6.35,26.67-2.64,20.52Z" style="opacity:0.2"></path><path d="M332,323.89c3.46,3.61,24.94,7.47,34.51,2l.71,9.17s-6.57,4.75-19.12,3.36-15.52-4.6-15.52-4.6Z" style="fill:#C53F3F"></path><path d="M332,323.89c3.46,3.61,24.94,7.47,34.51,2l.71,9.17s-6.57,4.75-19.12,3.36-15.52-4.6-15.52-4.6Z" style="opacity:0.30000000000000004"></path><path d="M363.78,332.38a1.74,1.74,0,1,1-1.74-1.74A1.74,1.74,0,0,1,363.78,332.38Z" style="fill:#fafafa"></path><path d="M379.31,326.46c4.06,2.92,25.89,2.83,34.31-4.26l2.36,8.88s-5.61,5.87-18.2,6.78-16.1-1.72-16.1-1.72Z" style="fill:#C53F3F"></path><path d="M379.31,326.46c4.06,2.92,25.89,2.83,34.31-4.26l2.36,8.88s-5.61,5.87-18.2,6.78-16.1-1.72-16.1-1.72Z" style="opacity:0.30000000000000004"></path><path d="M412.11,329.05a1.74,1.74,0,1,1-2-1.39A1.75,1.75,0,0,1,412.11,329.05Z" style="fill:#fafafa"></path><path d="M405.66,227.58l13.71,38.1s-14,17.09-47.81,16.65c-4.24-14.33-6.91-22.09-6.91-22.09s-2.24,9.51-5.93,22.09c-21.87-1-31.53-9.42-31.53-9.42l14-44.12s5.6,7,31,7.33S405.66,227.58,405.66,227.58Z" style="fill:#C53F3F"></path><path d="M405.66,227.58l13.71,38.1s-14,17.09-47.81,16.65c-4.24-14.33-6.91-22.09-6.91-22.09s-2.24,9.51-5.93,22.09c-21.87-1-31.53-9.42-31.53-9.42l14-44.12s5.6,7,31,7.33S405.66,227.58,405.66,227.58Z" style="fill:#fff;opacity:0.30000000000000004"></path></g><g id="freepik--Top--inject-51"><g id="freepik--Arm--inject-51"><path d="M276.8,151.52a4.8,4.8,0,0,0-.23,1.95c.09.44.56,1.6.62,2.05s0,.83-.38.87-.5-.15-.71.09a5.33,5.33,0,0,0-.8,3.31,17.71,17.71,0,0,1,.29,2,6.93,6.93,0,0,1-.34,1.55A8.83,8.83,0,0,0,275,166a4.65,4.65,0,0,0,.72,2.46,16.13,16.13,0,0,0,3.15,3.66s8.11-9.38,6.92-13.39a9.16,9.16,0,0,0-3.53-4.42,22.1,22.1,0,0,0-2.15-1.41C279.48,152.54,276.8,151.52,276.8,151.52Z" style="fill:#f0997a"></path><path d="M286.69,162.12c-.45-4.16-3.44-28.67-5.25-28.47s.52,25.19.92,28.92c0,0,0,0,0,0a2.18,2.18,0,1,0,4.33-.46Z" style="fill:#455a64"></path><path d="M284.1,162.23c-.7-1.6-2.42-17-2.71-21s-.21-7.62.59-7l-.64-.51c-1.65.8.62,25.22,1,28.88,0,0,0,0,0,0a2.18,2.18,0,1,0,4.33-.46A1.34,1.34,0,0,1,284.1,162.23Z" style="fill:#37474f"></path><path d="M282,135.11a2.66,2.66,0,1,1,1.93-3.23A2.66,2.66,0,0,1,282,135.11Z" style="fill:#455a64"></path><path d="M282,135.11l.3-.11a2.33,2.33,0,0,1-2.45-2.53,2.2,2.2,0,0,1,3.46-1.72,2.66,2.66,0,1,0-1.31,4.36Z" style="fill:#37474f"></path><path d="M279.25,113.56c-7.42.8-10.91-2.49-10.91-2.49,1.94,2.42,2.74,5.6,3.45,12.24a8.46,8.46,0,0,0,16.83-1.81c-.72-6.64-.62-9.92.77-12.7C289.39,108.8,286.67,112.76,279.25,113.56Z" style="fill:#C53F3F"></path><path d="M279.25,113.56c-7.42.8-10.91-2.49-10.91-2.49,1.94,2.42,2.74,5.6,3.45,12.24a8.46,8.46,0,0,0,16.83-1.81c-.72-6.64-.62-9.92.77-12.7C289.39,108.8,286.67,112.76,279.25,113.56Z" style="fill:#fff;opacity:0.5"></path><path d="M285.52,129c-2.41,1.36-6.86.39-8-2.56-1.1-2.75-.59-9.35-2.67-12.87a12,12,0,0,1-6.49-2.48c1.94,2.42,2.74,5.6,3.45,12.24A8.45,8.45,0,0,0,285.52,129Z" style="fill:#C53F3F;opacity:0.25"></path><path d="M290.07,103.45c-.21-2-1.71-3.74-4.2-4.85a18,18,0,0,0-16.26,1.75c-2.21,1.61-3.3,3.61-3.08,5.63.05.52.27,2.53.33,3,.21,2,1.71,3.75,4.2,4.85a18,18,0,0,0,16.26-1.75c2.2-1.61,3.3-3.61,3.08-5.63C290.35,106,290.13,104,290.07,103.45Z" style="fill:#C53F3F"></path><path d="M290.07,103.45c-.21-2-1.71-3.74-4.2-4.85a18,18,0,0,0-16.26,1.75c-2.21,1.61-3.3,3.61-3.08,5.63.05.52.27,2.53.33,3,.21,2,1.71,3.75,4.2,4.85a18,18,0,0,0,16.26-1.75c2.2-1.61,3.3-3.61,3.08-5.63C290.35,106,290.13,104,290.07,103.45Z" style="fill:#fff;opacity:0.2"></path><path d="M279.07,111.91a16.7,16.7,0,0,1-8.34-1.08c-2.49-1.1-4-2.83-4.2-4.85s.87-4,3.08-5.63a18,18,0,0,1,16.26-1.75c2.49,1.11,4,2.83,4.2,4.85s-.87,4-3.08,5.63A16.59,16.59,0,0,1,279.07,111.91Z" style="fill:#fff;opacity:0.6000000000000001"></path><path d="M270.17,101.12a17,17,0,0,1,15.31-1.65c4.5,2,4.92,6,.95,8.84A17,17,0,0,1,271.12,110C266.63,108,266.2,104,270.17,101.12Z" style="fill:#C53F3F"></path><path d="M288.94,105.17a6.63,6.63,0,0,1-2.51,3.15A17,17,0,0,1,271.12,110a6.59,6.59,0,0,1-3.12-2.53c-1.17-2-.47-4.38,2.17-6.31a17,17,0,0,1,15.31-1.65C288.47,100.8,289.66,103,288.94,105.17Z" style="fill:#fff;opacity:0.30000000000000004"></path><path d="M288.94,105.17a6.63,6.63,0,0,1-2.51,3.15A17,17,0,0,1,271.12,110a6.59,6.59,0,0,1-3.12-2.53,6.44,6.44,0,0,1,2.51-3.15,17,17,0,0,1,15.31-1.65A6.5,6.5,0,0,1,288.94,105.17Z" style="fill:#C53F3F;opacity:0.30000000000000004"></path><path d="M288.94,105.17a6.63,6.63,0,0,1-2.51,3.15A17,17,0,0,1,271.12,110a6.59,6.59,0,0,1-3.12-2.53,6.44,6.44,0,0,1,2.51-3.15,17,17,0,0,1,15.31-1.65A6.5,6.5,0,0,1,288.94,105.17Z" style="opacity:0.1"></path><path d="M273.87,108.1a1.8,1.8,0,1,1-2-1.6A1.79,1.79,0,0,1,273.87,108.1Z" style="fill:#C53F3F"></path><path d="M273.87,108.1a1.8,1.8,0,1,1-2-1.6A1.79,1.79,0,0,1,273.87,108.1Z" style="fill:#fff;opacity:0.5"></path><path d="M273.87,108.1a.78.78,0,0,0,0-.22,1.58,1.58,0,0,1-1.92,1.41,1.49,1.49,0,0,1-.83-2.48,1.79,1.79,0,1,0,2.79,1.29Z" style="fill:#C53F3F;opacity:0.25"></path><path d="M302.7,176c-2.34-6.78-2.44-10.16-3.91-14s-1-3.24-4.34-6.52a34.79,34.79,0,0,1-4.49-4.81,25.12,25.12,0,0,1-2.76-5.95c-1.9-1.11-3.2,2.85-2.63,5.62s1.3,5.06-.14,8.87-5.6,12.89-5.6,12.89,4.68,4.52,6.81,6.09,3.94,4.44,6.68,12.85A259.23,259.23,0,0,0,302.89,218l11.6-20.65C310.69,191.83,305,182.81,302.7,176Z" style="fill:#ffbda7"></path><path d="M285,152.25h0a11.57,11.57,0,0,1-.54,7c-.89,2.34-3.18,7.52-4.52,10.52a8.47,8.47,0,0,0,2.87,1.68c2,.37,2.09-3.38,2.09-3.38a4.79,4.79,0,0,0,2.93.88c1.75,0,2.26-.7,2.19-2.21a16.11,16.11,0,0,0-1.09-4c3.42.87,3.81-1.5,3.06-3.06S286.83,153.71,285,152.25Z" style="fill:#f0997a"></path><path d="M289.39,168.43a9.53,9.53,0,0,1,4.77,5.72c-.6-3.39-1.3-4.47-4.23-6.76Z" style="fill:#f0997a"></path><path d="M277.84,149.66c-1.47,1.75-1.55,3.4-.08,5.05s5.82,4.25,7.31,5.36a9.05,9.05,0,0,0,3.57,1.93,1.71,1.71,0,0,0,1.71-2.58,11.62,11.62,0,0,0-2.73-3.43,69.5,69.5,0,0,0-6.22-6.06C279.93,148.84,278.6,148.76,277.84,149.66Z" style="fill:#ffbda7"></path><path d="M280.93,156.93c-1.35-1-4.06-1.51-4.83-.45s-.44,3.32.8,4.5,5.26,3.62,6.5,4.49,2.42,2.31,3.42,2.59a1.72,1.72,0,0,0,2.07-1.86,9.87,9.87,0,0,0-1.79-4A22.08,22.08,0,0,0,280.93,156.93Z" style="fill:#ffbda7"></path><path d="M276,167.16a7.23,7.23,0,0,1-.17-3.92,2.11,2.11,0,0,1,2.61-.82,9.84,9.84,0,0,1,2.95,1.51,5.37,5.37,0,0,1,2.66,3.55c.49,2.23.26,3.05-1.18,2.77s-1.64-1.08-3.24-2.12S277,166.42,276,167.16Z" style="fill:#ffbda7"></path><path d="M294.41,179.08a11.79,11.79,0,0,1-3.07,1.54,4.17,4.17,0,0,1-4.42-1.25,13.69,13.69,0,0,1,1.7,2.46h0a2.31,2.31,0,0,0,2.44.33C292.77,181.66,294.41,179.08,294.41,179.08Z" style="fill:#f0997a"></path><path d="M286.57,179l-.05-.06h0Z" style="fill:#9e6767"></path><path d="M352.11,160.07c-5.88.22-10.58.37-17.33,10.27s-18.84,28.06-18.84,28.06l-10.86-17.23a13.52,13.52,0,0,1-4.81,6.32c-3.43,2.22-7.64,3-9.14,1.79,4.16,10.68,6.34,22.15,13,32.18,4.29,6.46,8.58,8.84,17.94,3.3s29.26-32.39,29.26-32.39S361.42,168.71,352.11,160.07Z" style="fill:#C53F3F"></path><path d="M315.94,198.4a33.67,33.67,0,0,1,4.48,14.94c2.1-6.23,0-14.17-2.54-17.85Z" style="opacity:0.15"></path><path d="M304.38,178.71l4.81,8s-1,4.66-7.14,7.83-10.06,2.6-10.06,2.6L290,186.81A16.49,16.49,0,0,0,298.9,185,10.89,10.89,0,0,0,304.38,178.71Z" style="fill:#37474f"></path><path d="M295.5,191.15a1.34,1.34,0,1,1-1.34-1.34A1.34,1.34,0,0,1,295.5,191.15Z" style="fill:#f0f0f0"></path></g><g id="freepik--Chest--inject-51"><path d="M340.22,221.61c.11,3.35.27,6.71.5,9.93,1.88,1.26,10.56,6.1,31.83,6.12,19.3,0,30.09-5.44,33.25-7.33-.08-2.69-.17-5.77-.24-9.06-.09-3.73-.16-7.74-.21-11.69-.07-7.15,5.79-33,5.87-36.11.11-4.27-.31-7.18-4.08-8.69-2.26-.91-4.32-1.61-6.75-2.6-3.5,1.43-5.88-.92-9.49-1.64,0,0-24.2-1.94-27.65-2.12-6.5-.33-15.05,3.23-15.05,3.23-4,3.63-7.29,10.74-7.89,28.09C340.19,193.52,339.77,207.58,340.22,221.61Z" style="fill:#C53F3F"></path><path d="M340.22,221.61c.11,3.35.27,6.71.5,9.93,1.88,1.26,10.56,6.1,31.83,6.12,19.3,0,30.09-5.44,33.25-7.33-.08-2.69-.17-5.77-.24-9.06-.09-3.73-.16-7.74-.21-11.69-.07-7.15,5.79-33,5.87-36.11.11-4.27-.31-7.18-4.08-8.69-2.26-.91-4.32-1.61-6.75-2.6-3.5,1.43-5.88-.92-9.49-1.64,0,0-24.2-1.94-27.65-2.12-6.5-.33-15.05,3.23-15.05,3.23-4,3.63-7.29,10.74-7.89,28.09C340.19,193.52,339.77,207.58,340.22,221.61Z" style="fill:#fff;opacity:0.30000000000000004"></path><path d="M362.12,199.7a3.18,3.18,0,1,0,3.18-3.17A3.18,3.18,0,0,0,362.12,199.7Z" style="fill:#f0f0f0"></path><path d="M362.12,212.56a3.18,3.18,0,1,0,3.18-3.18A3.18,3.18,0,0,0,362.12,212.56Z" style="fill:#f0f0f0"></path></g><path d="M406.79,229.69l-1.29-8.83a83.66,83.66,0,0,1-32.71,6.72c-22.54,0-32.82-6.11-32.82-6.11l.34,9.79s7.81,6.37,32.24,6.4C395.89,237.68,406.79,229.69,406.79,229.69Z" style="fill:#37474f"></path><path d="M355.79,235.86c-.1,3,5.23,2.87,8.43,3,2.86.15,9.35.56,9.29-2.35a60.81,60.81,0,0,0-.23-7.19c-.35-3.05-3.38-3.14-9.06-3.46-4.09-.22-7.89-.86-8.15,1.71C355.91,229.27,355.84,234.3,355.79,235.86Zm2.25-1.22c0-1,.08-4.3.2-5.38.2-1.68,3-1.27,6.08-1.12,4.25.2,6.51.27,6.78,2.26a34.23,34.23,0,0,1,.16,4.71c.05,1.89-4.79,1.62-6.94,1.52C361.93,236.53,358,236.61,358,234.64Z" style="fill:#f0f0f0"></path><g id="freepik--arm--inject-51"><g id="freepik--Gift--inject-51"><polygon points="323.04 270.31 288.3 250.23 288.3 220.24 287.57 219.82 287.57 209.58 323.03 230.06 323.04 270.31" style="fill:#C53F3F"></polygon><polygon points="323.04 270.31 288.3 250.23 288.3 220.24 287.57 219.82 287.57 209.58 323.03 230.06 323.04 270.31" style="opacity:0.1"></polygon><polygon points="323.04 270.31 288.3 250.23 288.3 220.24 287.57 219.82 287.57 209.58 323.03 230.06 323.04 270.31" style="fill:#fff;opacity:0.30000000000000004"></polygon><polygon points="287.57 209.58 323.03 230.06 323.04 240.29 287.57 219.82 287.57 209.58" style="fill:#e0e0e0"></polygon><polygon points="323.03 240.29 309.74 232.62 288.3 220.24 288.3 221.71 323.03 241.76 323.03 240.29" style="opacity:0.15"></polygon><polygon points="323.03 270.31 357.58 250.38 357.58 220.35 358.5 219.82 358.5 209.58 323.03 230.06 323.03 270.31" style="fill:#C53F3F"></polygon><polygon points="323.03 270.31 357.58 250.38 357.58 220.35 358.5 219.82 358.5 209.58 323.03 230.06 323.03 270.31" style="fill:#fff;opacity:0.45"></polygon><polygon points="358.5 209.58 323.03 230.06 323.03 240.29 358.5 219.82 358.5 209.58" style="fill:#f0f0f0"></polygon><polygon points="357.58 220.35 323.03 240.29 323.03 241.76 357.58 221.84 357.58 220.35" style="opacity:0.1"></polygon><polygon points="358.5 209.58 323.04 189.1 287.57 209.58 323.03 230.06 358.5 209.58" style="fill:#fafafa"></polygon><g id="freepik--Dots--inject-51"><path d="M325.25,259.94a2.35,2.35,0,0,0-.89,1.89c0,.76.4,1.14.89.86a2.34,2.34,0,0,0,.89-1.89C326.14,260,325.75,259.65,325.25,259.94Z" style="fill:#fafafa"></path><path d="M330.27,238.63a2.35,2.35,0,0,0-.89,1.89c0,.76.4,1.14.89.86a2.35,2.35,0,0,0,.9-1.89C331.17,238.73,330.77,238.34,330.27,238.63Z" style="fill:#fafafa"></path><path d="M325.25,243a2.37,2.37,0,0,0-.89,1.89c0,.76.4,1.15.89.86a2.33,2.33,0,0,0,.89-1.89C326.14,243.13,325.75,242.75,325.25,243Z" style="fill:#fafafa"></path><path d="M325.25,250.45a2.37,2.37,0,0,0-.89,1.89c0,.76.4,1.15.89.86a2.33,2.33,0,0,0,.89-1.89C326.14,250.55,325.75,250.17,325.25,250.45Z" style="fill:#fafafa"></path><path d="M340.32,244.19a2.35,2.35,0,0,0,.89-1.89c0-.76-.4-1.14-.89-.86a2.37,2.37,0,0,0-.89,1.89C339.43,244.09,339.83,244.48,340.32,244.19Z" style="fill:#fafafa"></path><path d="M340.32,236.77a2.35,2.35,0,0,0,.89-1.89c0-.76-.4-1.14-.89-.86a2.37,2.37,0,0,0-.89,1.89C339.43,236.67,339.83,237.06,340.32,236.77Z" style="fill:#fafafa"></path><path d="M330.27,246.05a2.35,2.35,0,0,0-.89,1.89c0,.76.4,1.14.89.86a2.35,2.35,0,0,0,.9-1.89C331.17,246.15,330.77,245.76,330.27,246.05Z" style="fill:#fafafa"></path><path d="M335.3,239.67a2.33,2.33,0,0,0-.9,1.89c0,.76.4,1.14.9.86a2.38,2.38,0,0,0,.89-1.89C336.19,239.77,335.79,239.38,335.3,239.67Z" style="fill:#fafafa"></path><path d="M335.3,256.57a2.36,2.36,0,0,0-.9,1.89c0,.76.4,1.15.9.86a2.35,2.35,0,0,0,.89-1.89C336.19,256.67,335.79,256.29,335.3,256.57Z" style="fill:#fafafa"></path><path d="M335.3,247.09a2.33,2.33,0,0,0-.9,1.89c0,.76.4,1.14.9.86a2.37,2.37,0,0,0,.89-1.89C336.19,247.19,335.79,246.8,335.3,247.09Z" style="fill:#fafafa"></path><path d="M330.27,254.5a2.37,2.37,0,0,0-.89,1.89c0,.76.4,1.15.89.86a2.33,2.33,0,0,0,.9-1.89C331.17,254.6,330.77,254.22,330.27,254.5Z" style="fill:#fafafa"></path><path d="M330.27,263a2.35,2.35,0,0,0-.89,1.89c0,.76.4,1.14.89.86a2.35,2.35,0,0,0,.9-1.89C331.17,263.06,330.77,262.67,330.27,263Z" style="fill:#fafafa"></path><path d="M355.39,240.62a2.35,2.35,0,0,0,.89-1.89c0-.75-.4-1.14-.89-.85a2.33,2.33,0,0,0-.9,1.89C354.49,240.52,354.89,240.91,355.39,240.62Z" style="fill:#fafafa"></path><path d="M355.39,250.11a2.35,2.35,0,0,0,.89-1.89c0-.76-.4-1.14-.89-.86a2.35,2.35,0,0,0-.9,1.89C354.49,250,354.89,250.4,355.39,250.11Z" style="fill:#fafafa"></path><path d="M355.39,233.2a2.35,2.35,0,0,0,.89-1.89c0-.76-.4-1.14-.89-.86a2.37,2.37,0,0,0-.9,1.9C354.49,233.1,354.89,233.49,355.39,233.2Z" style="fill:#fafafa"></path><path d="M350.36,248a2.33,2.33,0,0,0,.9-1.89c0-.76-.4-1.14-.9-.86a2.37,2.37,0,0,0-.89,1.89C349.47,247.94,349.87,248.33,350.36,248Z" style="fill:#fafafa"></path><path d="M334.4,234.14c0,.76.4,1.14.9.86a2.38,2.38,0,0,0,.89-1.89,2,2,0,0,0-.05-.38l-1.68,1A2.22,2.22,0,0,0,334.4,234.14Z" style="fill:#fafafa"></path><path d="M355.39,223a2.36,2.36,0,0,0-.9,1.89c0,.76.4,1.15.9.86a2.35,2.35,0,0,0,.89-1.89C356.28,223.13,355.88,222.75,355.39,223Z" style="fill:#fafafa"></path><path d="M345.34,245.23a2.35,2.35,0,0,0,.89-1.89c0-.76-.4-1.14-.89-.86a2.37,2.37,0,0,0-.89,1.89C344.45,245.13,344.85,245.51,345.34,245.23Z" style="fill:#fafafa"></path><path d="M345.34,237.81a2.35,2.35,0,0,0,.89-1.89c0-.76-.4-1.14-.89-.86a2.37,2.37,0,0,0-.89,1.89C344.45,237.71,344.85,238.09,345.34,237.81Z" style="fill:#fafafa"></path><path d="M345.34,230.39a2.37,2.37,0,0,0,.89-1.89c0-.76-.4-1.14-.89-.86a2.37,2.37,0,0,0-.89,1.89C344.45,230.29,344.85,230.67,345.34,230.39Z" style="fill:#fafafa"></path><path d="M350.36,232.17a2.35,2.35,0,0,0,.9-1.89c0-.76-.4-1.15-.9-.86a2.35,2.35,0,0,0-.89,1.89C349.47,232.07,349.87,232.45,350.36,232.17Z" style="fill:#fafafa"></path><path d="M340.32,252.65a2.37,2.37,0,0,0,.89-1.89c0-.76-.4-1.15-.89-.86a2.35,2.35,0,0,0-.89,1.89C339.43,252.55,339.83,252.93,340.32,252.65Z" style="fill:#fafafa"></path><path d="M350.36,239.59a2.35,2.35,0,0,0,.9-1.89c0-.76-.4-1.15-.9-.86a2.35,2.35,0,0,0-.89,1.89C349.47,239.49,349.87,239.87,350.36,239.59Z" style="fill:#fafafa"></path><path d="M345.34,254.72a2.37,2.37,0,0,0,.89-1.89c0-.76-.4-1.15-.89-.86a2.35,2.35,0,0,0-.89,1.89C344.45,254.62,344.85,255,345.34,254.72Z" style="fill:#fafafa"></path><path d="M310.32,233.06c-.49-.29-.89.1-.89.86a2.37,2.37,0,0,0,.89,1.89c.5.28.9-.1.9-.86A2.33,2.33,0,0,0,310.32,233.06Z" style="fill:#e0e0e0"></path><path d="M310.32,240.48c-.49-.29-.89.1-.89.86a2.37,2.37,0,0,0,.89,1.89c.5.28.9-.1.9-.86A2.33,2.33,0,0,0,310.32,240.48Z" style="fill:#e0e0e0"></path><path d="M305.3,241.06c-.49-.28-.89.1-.89.86a2.35,2.35,0,0,0,.89,1.89c.49.29.89-.1.89-.86A2.37,2.37,0,0,0,305.3,241.06Z" style="fill:#e0e0e0"></path><path d="M310.32,247.9c-.49-.29-.89.1-.89.86a2.37,2.37,0,0,0,.89,1.89c.5.28.9-.1.9-.86A2.33,2.33,0,0,0,310.32,247.9Z" style="fill:#e0e0e0"></path><path d="M310.32,257.39c-.49-.29-.89.09-.89.85a2.35,2.35,0,0,0,.89,1.89c.5.29.9-.1.9-.85A2.33,2.33,0,0,0,310.32,257.39Z" style="fill:#e0e0e0"></path><path d="M305.3,249.51c-.49-.28-.89.1-.89.86a2.35,2.35,0,0,0,.89,1.89c.49.29.89-.1.89-.86A2.38,2.38,0,0,0,305.3,249.51Z" style="fill:#e0e0e0"></path><path d="M305.3,258c-.49-.29-.89.1-.89.86a2.37,2.37,0,0,0,.89,1.89c.49.28.89-.1.89-.86A2.35,2.35,0,0,0,305.3,258Z" style="fill:#e0e0e0"></path><path d="M315.35,240.63c-.5-.28-.9.1-.9.86a2.33,2.33,0,0,0,.9,1.89c.49.29.89-.1.89-.86A2.37,2.37,0,0,0,315.35,240.63Z" style="fill:#e0e0e0"></path><path d="M320.37,240.05c-.49-.28-.89.1-.89.86a2.37,2.37,0,0,0,.89,1.89c.49.28.89-.1.89-.86A2.35,2.35,0,0,0,320.37,240.05Z" style="fill:#e0e0e0"></path><path d="M320.37,254.89c-.49-.28-.89.1-.89.86a2.37,2.37,0,0,0,.89,1.89c.49.28.89-.1.89-.86A2.37,2.37,0,0,0,320.37,254.89Z" style="fill:#e0e0e0"></path><path d="M320.37,247.47c-.49-.28-.89.1-.89.86a2.37,2.37,0,0,0,.89,1.89c.49.28.89-.1.89-.86A2.35,2.35,0,0,0,320.37,247.47Z" style="fill:#e0e0e0"></path><path d="M305.3,233.64c-.49-.28-.89.1-.89.86a2.35,2.35,0,0,0,.89,1.89c.49.28.89-.1.89-.86A2.37,2.37,0,0,0,305.3,233.64Z" style="fill:#e0e0e0"></path><path d="M320.37,264.38c-.49-.29-.89.1-.89.86a2.37,2.37,0,0,0,.89,1.89c.49.28.89-.1.89-.86A2.35,2.35,0,0,0,320.37,264.38Z" style="fill:#e0e0e0"></path><path d="M315.35,256.51c-.5-.29-.9.1-.9.86a2.35,2.35,0,0,0,.9,1.89c.49.28.89-.1.89-.86A2.35,2.35,0,0,0,315.35,256.51Z" style="fill:#e0e0e0"></path><path d="M315.35,248.05c-.5-.28-.9.1-.9.86a2.33,2.33,0,0,0,.9,1.89c.49.29.89-.1.89-.86A2.37,2.37,0,0,0,315.35,248.05Z" style="fill:#e0e0e0"></path><path d="M290.23,226.49c-.49-.28-.89.1-.89.86a2.35,2.35,0,0,0,.89,1.89c.5.29.9-.1.9-.86A2.35,2.35,0,0,0,290.23,226.49Z" style="fill:#e0e0e0"></path><path d="M290.23,243.4c-.49-.29-.89.1-.89.86a2.37,2.37,0,0,0,.89,1.89c.5.28.9-.1.9-.86A2.33,2.33,0,0,0,290.23,243.4Z" style="fill:#e0e0e0"></path><path d="M295.26,226.65c-.5-.29-.9.1-.9.86a2.35,2.35,0,0,0,.9,1.89c.49.28.89-.1.89-.86A2.35,2.35,0,0,0,295.26,226.65Z" style="fill:#e0e0e0"></path><path d="M290.23,221.82a.49.49,0,0,0,.66-.08l-1.31-.76A1.79,1.79,0,0,0,290.23,221.82Z" style="fill:#e0e0e0"></path><path d="M290.23,233.91c-.49-.28-.89.1-.89.86a2.35,2.35,0,0,0,.89,1.89c.5.29.9-.1.9-.86A2.35,2.35,0,0,0,290.23,233.91Z" style="fill:#e0e0e0"></path><path d="M299.39,226.92a2.35,2.35,0,0,0,.89,1.89c.49.29.89-.1.89-.86,0-.1,0-.2,0-.3l-1.72-1A2.06,2.06,0,0,0,299.39,226.92Z" style="fill:#e0e0e0"></path><path d="M295.26,234.07c-.5-.29-.9.1-.9.86a2.35,2.35,0,0,0,.9,1.89c.49.28.89-.1.89-.86A2.35,2.35,0,0,0,295.26,234.07Z" style="fill:#e0e0e0"></path><path d="M300.28,250.39c-.49-.28-.89.1-.89.86a2.35,2.35,0,0,0,.89,1.89c.49.29.89-.1.89-.86A2.37,2.37,0,0,0,300.28,250.39Z" style="fill:#e0e0e0"></path><path d="M300.28,233.48c-.49-.28-.89.1-.89.86a2.35,2.35,0,0,0,.89,1.89c.49.29.89-.1.89-.86A2.38,2.38,0,0,0,300.28,233.48Z" style="fill:#e0e0e0"></path><path d="M300.28,240.9c-.49-.28-.89.1-.89.86a2.35,2.35,0,0,0,.89,1.89c.49.29.89-.1.89-.86A2.38,2.38,0,0,0,300.28,240.9Z" style="fill:#e0e0e0"></path><path d="M295.26,242.52c-.5-.28-.9.1-.9.86a2.33,2.33,0,0,0,.9,1.89c.49.29.89-.1.89-.86A2.37,2.37,0,0,0,295.26,242.52Z" style="fill:#e0e0e0"></path><path d="M295.26,251c-.5-.29-.9.1-.9.86a2.36,2.36,0,0,0,.9,1.89c.49.28.89-.1.89-.86A2.35,2.35,0,0,0,295.26,251Z" style="fill:#e0e0e0"></path></g><polygon points="337.44 262 337.44 221.74 343.2 218.41 343.2 258.67 337.44 262" style="fill:#C53F3F"></polygon><polygon points="337.44 262 337.44 221.74 343.2 218.41 343.2 258.67 337.44 262" style="opacity:0.15"></polygon><polygon points="308.63 262 308.63 221.74 302.87 218.41 302.87 258.67 308.63 262" style="fill:#C53F3F"></polygon><polygon points="308.63 262 308.63 221.74 302.87 218.41 302.87 258.67 308.63 262" style="opacity:0.5"></polygon><polygon points="343.2 218.41 307.73 197.94 301.97 201.26 337.44 221.74 343.2 218.41" style="fill:#C53F3F"></polygon><polygon points="323.51 213.7 329.27 210.37 323.51 207.04 317.75 210.37 323.51 213.7" style="opacity:0.25"></polygon><polygon points="308.63 221.74 344.1 201.26 338.33 197.94 302.87 218.41 308.63 221.74" style="fill:#C53F3F"></polygon><polygon points="323.08 213.31 325.68 228.53 325.68 250.33 331.32 243.66 331.32 225.27 324.29 210.97 323.08 213.31" style="fill:#C53F3F"></polygon><polygon points="323.08 213.31 325.68 228.53 325.68 250.33 331.32 243.66 331.32 225.27 324.29 210.97 323.08 213.31" style="opacity:0.1"></polygon><polygon points="324.46 212 346.99 213.41 351.05 208.29 324.48 209.84 324.46 212" style="fill:#C53F3F"></polygon><polygon points="324.46 212 346.99 213.41 351.05 208.29 324.48 209.84 324.46 212" style="opacity:0.1"></polygon><path d="M295.75,199.43s-.35,4.94,5,8.53c8.63,5.77,18.82,5.63,22.3,5.35l-.05-3.12s-8.06-.89-13.26-5.83c-4.68-4.45-5.43-14.81-5.43-14.81Z" style="fill:#C53F3F"></path><path d="M295.75,199.43s-.35,4.94,5,8.53c8.63,5.77,18.82,5.63,22.3,5.35l-.05-3.12s-8.06-.89-13.26-5.83c-4.68-4.45-5.43-14.81-5.43-14.81Z" style="opacity:0.5"></path><path d="M323.08,210.58A24.38,24.38,0,0,0,316,196.27c-6.41-6-11.65-6.72-11.65-6.72-4.2,2.58-7.15,5.83-8.59,9.88,0,0,5.43-1.23,14.23,2.58,7.83,3.39,13.1,11.3,13.1,11.3Z" style="fill:#C53F3F"></path><path d="M323.08,210.58A24.38,24.38,0,0,0,316,196.27c-6.41-6-11.65-6.72-11.65-6.72-4.2,2.58-7.15,5.83-8.59,9.88,0,0,5.43-1.23,14.23,2.58,7.83,3.39,13.1,11.3,13.1,11.3Z" style="opacity:0.15"></path><path d="M303.18,199.83A35.18,35.18,0,0,1,310,202a23,23,0,0,1,2.16,1.09l4.22-6.45-.37-.38a31,31,0,0,0-6.39-4.71C307.93,193.65,305.1,197.33,303.18,199.83Z" style="fill:#C53F3F"></path><path d="M347,196.81s1.09,4.83-3.69,9.19c-7.67,7-16.75,7.06-20.22,7.31l-.43-3.09a18.1,18.1,0,0,0,11.22-6.43c4-5.1,3.15-15.46,3.15-15.46Z" style="fill:#C53F3F"></path><path d="M347,196.81s1.09,4.83-3.69,9.19c-7.67,7-16.75,7.06-20.22,7.31l-.43-3.09a18.1,18.1,0,0,0,11.22-6.43c4-5.1,3.15-15.46,3.15-15.46Z" style="opacity:0.5"></path><path d="M322.67,210.61a17.61,17.61,0,0,1,3.84-13.88c5.43-6.94,10.51-8.4,10.51-8.4,4.53,1.92,7.94,4.68,10,8.48,0,0-5.55-.4-13.68,4.69a28.14,28.14,0,0,0-10.23,11.81Z" style="fill:#C53F3F"></path><path d="M322.67,210.61a17.61,17.61,0,0,1,3.84-13.88c5.43-6.94,10.51-8.4,10.51-8.4,4.53,1.92,7.94,4.68,10,8.48,0,0-5.55-.4-13.68,4.69a28.14,28.14,0,0,0-10.23,11.81Z" style="opacity:0.15"></path><path d="M328.34,194.58c2.54,1.29,6.24,3.2,9.11,4.69a25.77,25.77,0,0,1,7.79-2.36,29.45,29.45,0,0,0-9.92-7.85A25.51,25.51,0,0,0,328.34,194.58Z" style="fill:#C53F3F"></path><polygon points="331.32 225.27 325.68 228.53 325.68 250.33 331.32 243.66 331.32 225.27" style="fill:#C53F3F"></polygon><polygon points="331.32 225.27 325.68 228.53 325.68 250.33 331.32 243.66 331.32 225.27" style="opacity:0.15"></polygon></g><path d="M379.77,238.57c-7.81,3.14-14.42,5.74-15.74,6.09-3.55.93-5.85,1-9.62,1.36-2.5.28-5.4.47-8.73.53-2.74,0-6.31-.44-9.22-.23-2.36.17-4,.79-3,3.09.45,1.16,2.8,1.93,4.12,2.27s2.38.62,3.51.89a35.07,35.07,0,0,1,3.49,1,9.22,9.22,0,0,1,2.56,1.15c1.11,1.32-1.68,2.67-2.24,3l-14.75,8.51c3.29,1.44,14.79,3.1,19.13,2.91,1.75-.08,8.69-3.73,13.1-5.72,4.81-2.18,6.9-3.88,12.1-5.21,1.26-.32,3.09-.69,5.34-1.11Z" style="fill:#ffbda7"></path><path d="M407.14,164.78c6.25,2.37,11.27,4.73,13.94,12.08s.82,17.31-1,30.25-5.34,28-6.16,31.72-.77,5.25-7.31,8.78-26.05,9.9-26.05,9.9-.82-6.75-3.13-11.53a34.54,34.54,0,0,0-4.95-7.67l19.06-12.16s3.19-23.87,4.11-31S397.71,171,407.14,164.78Z" style="fill:#C53F3F"></path><path d="M374.71,236.87l-9,5s6.16,13.55,6,20.94c.57,0,13.63-4.31,13.63-4.31S384.84,242.72,374.71,236.87Z" style="fill:#37474f"></path><path d="M375.88,255.09a1.81,1.81,0,1,0,1.81-1.81A1.81,1.81,0,0,0,375.88,255.09Z" style="fill:#f0f0f0"></path></g><path d="M352.09,106.37c4.93-4.46,6.78-14.6,16-14,6-2.68,7.27-2.77,11.36-3a32,32,0,0,1,16.42,4.15c4.62,2.85,9.05,8,10.44,13.18,1.49,5.54,1.62,15.31-.59,22.89-2.11,16.78-20,23.78-20,23.78l-9.46-1.75-25.94-25.44c-.48-.95-.87-1.62-.87-1.62C342.72,118.35,346.29,107.51,352.09,106.37Z" style="fill:#263238"></path><path d="M405.79,126.21c7.66-13.36,4.65-34.36,1.1-43.82s-11.55-16.2-18.76-14.45,2,3.62-.1,8.1-10.37,5.61-18.78,10.07-15.31,11.56-15.95,18.61C353.3,104.72,386.92,96.56,405.79,126.21Z" style="fill:#C53F3F"></path><path d="M405.79,126.21c7.66-13.36,4.65-34.36,1.1-43.82s-11.55-16.2-18.76-14.45,2,3.62-.1,8.1-10.37,5.61-18.78,10.07-15.31,11.56-15.95,18.61C353.3,104.72,386.92,96.56,405.79,126.21Z" style="fill:#fff;opacity:0.30000000000000004"></path><path d="M379.51,68.69a4.29,4.29,0,1,0,4.56-4A4.3,4.3,0,0,0,379.51,68.69Z" style="fill:#C53F3F"></path><path d="M379.51,68.69a4.29,4.29,0,1,0,4.56-4A4.3,4.3,0,0,0,379.51,68.69Z" style="opacity:0.30000000000000004"></path><path d="M405.75,129.62c-6.33-7-28.88-26.72-53.66-23.25,0,0-1-14.69,1.83-17S364,99.81,364,99.81s4.33-12.16,8-11.62,5.38,13.91,5.38,13.91,7-12.44,11.18-10.72,2,16.31,2,16.31,10.27-10.46,13-8.85S401.84,115,401.84,115s12.15-3.4,13.73-1.66S405.75,129.62,405.75,129.62Z" style="fill:#C53F3F"></path><path d="M405.75,129.62c-6.33-7-28.88-26.72-53.66-23.25,0,0-1-14.69,1.83-17S364,99.81,364,99.81s4.33-12.16,8-11.62,5.38,13.91,5.38,13.91,7-12.44,11.18-10.72,2,16.31,2,16.31,10.27-10.46,13-8.85S401.84,115,401.84,115s12.15-3.4,13.73-1.66S405.75,129.62,405.75,129.62Z" style="opacity:0.30000000000000004"></path><path d="M396.06,140.17a9.34,9.34,0,0,0,4.31-2.68,12.58,12.58,0,0,0,2.43-4.55,23.6,23.6,0,0,0,1.12-6.11,11.22,11.22,0,0,0-.76-5.66,1.14,1.14,0,0,0-.66-.65.82.82,0,0,0-.72.29,3.82,3.82,0,0,0-.45.68c-1,1.7-2.85,2.58-4.46,3.57a13.25,13.25,0,0,0-4.46,4.38c-.56,1-1.41,2.69-2.81,2.25-2.09-.66-2.1-5.12-2.4-7.14-1.68-11.31-9.82-18.6-19.24-17.81-8.76-3.72-14.72.46-17,6.89a20.62,20.62,0,0,0-1.39,10.6c.2,3-1.19,4.18-1.61,9.06s.63,10,2.91,13.39c2.64,3.86,8.07,6.11,14.11,6l-.24,7.09c-6.77,9.23,17.56,10.82,23.88,2.63l1.8-23.86S392,141.13,396.06,140.17Z" style="fill:#ffbda7"></path><path d="M392.61,134.59a7.83,7.83,0,0,1,1.69-3.78,16.62,16.62,0,0,1,3.21-3c.64-.47,1.28-1,1.94-1.4a6.14,6.14,0,0,0,1.61-1.29s0,0,0,0A6.37,6.37,0,0,1,399,127.9c-.94.77-1.89,1.53-2.76,2.38a9.3,9.3,0,0,0-2.06,2.9c-.34.79-1,2.8.36,3,.4.07.22.82-.11.88C392.93,137.39,392.48,135.71,392.61,134.59Z" style="fill:#f0997a"></path><path d="M354.73,103.81a3.11,3.11,0,0,0-.36,1.7,8.46,8.46,0,0,0,3,7.25c1.33,1.11,3,1.89,4,3.24s1.35,3.63-.07,4.63a5.09,5.09,0,0,0,4.56-2.39,12,12,0,0,0,1.7-5.08,4.67,4.67,0,0,0,7.86,3.18c-.65.62.76,3.24,1.13,3.76a10.14,10.14,0,0,0,2.9,2.56,24.29,24.29,0,0,0,8.49,2.77,28.29,28.29,0,0,0-.57-8.28c-1.05-4.78-3.65-10.47-9.93-13.69a24.82,24.82,0,0,0-17.08-2,23.7,23.7,0,0,0-4.16,1.41A3.34,3.34,0,0,0,354.73,103.81Z" style="fill:#263238"></path><path d="M373,129.94c0,1.88,2.11,3.44,4.79,3.48s4.86-1.44,4.89-3.32-2.11-3.45-4.78-3.49S373,128.05,373,129.94Z" style="fill:#f28f8f"></path><path d="M345.71,127.8c0,1.88,2.11,3.44,4.78,3.48s4.87-1.44,4.9-3.32-2.11-3.45-4.78-3.49S345.74,125.92,345.71,127.8Z" style="fill:#f28f8f"></path><path d="M371.19,125.3a2.5,2.5,0,1,0,2.85-2.2A2.54,2.54,0,0,0,371.19,125.3Z" style="fill:#263238"></path><path d="M379.64,119.33,375.16,117a2.53,2.53,0,0,1,4.48,2.36Z" style="fill:#263238"></path><path d="M357.4,116.18l-4.93,1.43a2.57,2.57,0,0,1,4.93-1.43Z" style="fill:#263238"></path><path d="M371,137.89l-8.51,1.82a4.29,4.29,0,0,0,5.08,3.49A4.56,4.56,0,0,0,371,137.89Z" style="fill:#b16668"></path><path d="M371.09,139a4.51,4.51,0,0,1-3.49,4.24,4.17,4.17,0,0,1-1.45,0A5.22,5.22,0,0,1,371.09,139Z" style="fill:#f28f8f"></path><path d="M353.33,124a2.5,2.5,0,1,0,2.85-2.21A2.56,2.56,0,0,0,353.33,124Z" style="fill:#263238"></path><path d="M365,152.7a36.09,36.09,0,0,0,15.38-3,16.52,16.52,0,0,0,6.07-5.11,14.32,14.32,0,0,1-3.75,6.12c-5.92,5.21-17.8,4.79-17.8,4.79Z" style="fill:#f0997a"></path><path d="M366,122.37c-1.66,2.31-4,5.07-6,6.25s-3.6,1.42-3.91,2.16c-.23.53.39,1.46,1.75,2.34a17.72,17.72,0,0,0,5.71,1.9A41.85,41.85,0,0,0,366,122.37Z" style="fill:#f0997a"></path><path d="M388.92,158.47s14.45,2.8,14.24,5.06c-.17,1.88-11.22,2.12-11.22,2.12s9.88,8,8.25,9.26S385,171.25,385,171.25s2.52,10.14.89,11.38-10.58-9.42-10.58-9.42-6.71,9.84-8.91,10.28-.8-12-.8-12-10.84,3.35-13.7,1.93,7.75-8,7.75-8-11-3.47-9.46-5c3-3,14.68-2.71,14.68-2.71S366,161.8,376,162.31,388.92,158.47,388.92,158.47Z" style="fill:#455a64"></path><path d="M400.51,163.35a2.64,2.64,0,1,0,2.64-2.64A2.64,2.64,0,0,0,400.51,163.35Z" style="fill:#f0f0f0"></path><path d="M399.18,175.39a2.64,2.64,0,1,0,2.64-2.64A2.64,2.64,0,0,0,399.18,175.39Z" style="fill:#f0f0f0"></path><path d="M383.79,184.33a2.64,2.64,0,1,0,2.64-2.64A2.64,2.64,0,0,0,383.79,184.33Z" style="fill:#f0f0f0"></path><path d="M347.37,173.84A2.64,2.64,0,1,0,350,171.2,2.64,2.64,0,0,0,347.37,173.84Z" style="fill:#f0f0f0"></path><path d="M363.19,185a2.64,2.64,0,1,0,2.64-2.64A2.64,2.64,0,0,0,363.19,185Z" style="fill:#f0f0f0"></path><path d="M346.15,160.33a2.64,2.64,0,1,0,2.64-2.64A2.65,2.65,0,0,0,346.15,160.33Z" style="fill:#f0f0f0"></path></g></g></g><g id="freepik--character-1--inject-51"><g id="freepik--elf--inject-51"><g id="freepik--bottom--inject-51"><g id="freepik--bottom--inject-51"><path d="M101.89,235.78a233,233,0,0,0-1.56,26.53c-.26,18.39-.76,36.56-.53,54.39,0,0-7.06,11.07-9.32,28-1.42,10.61-1.65,28.1-4.64,39.49l-.47,1.9c1.19,7.81,11.4,10.44,13.22,6,0,0,20.17-43.29,26.23-58.3a229.51,229.51,0,0,0,12.44-43.92l4.85,32.79a128,128,0,0,0-1.83,25.4c.55,11.48,2.49,25.43,2,37.95-.06,1.67,1.62,4.12,1.56,5.78,0,.48,1.21,2.12,6,3s8.36-2,8.47-2.68c.25-1.56,10.89-51.38,12.92-63.33,4.43-26.16,2.81-73,.83-93Z" style="fill:#C53F3F"></path><path d="M101.89,235.78a233,233,0,0,0-1.56,26.53c-.26,18.39-.76,36.56-.53,54.39,0,0-7.06,11.07-9.32,28-1.42,10.61-1.65,28.1-4.64,39.49l-.47,1.9c1.19,7.81,11.4,10.44,13.22,6,0,0,20.17-43.29,26.23-58.3a229.51,229.51,0,0,0,12.44-43.92l4.85,32.79a128,128,0,0,0-1.83,25.4c.55,11.48,2.49,25.43,2,37.95-.06,1.67,1.62,4.12,1.56,5.78,0,.48,1.21,2.12,6,3s8.36-2,8.47-2.68c.25-1.56,10.89-51.38,12.92-63.33,4.43-26.16,2.81-73,.83-93Z" style="fill:#fff;opacity:0.8"></path><path d="M96.72,373.47a16.44,16.44,0,0,1-5.11-3.6,15.91,15.91,0,0,1-1.85-2.33c-.43-.64-.73-1.37-1.14-2-.09,1.08-.19,2.15-.3,3.23a19.47,19.47,0,0,0,1.58,2.18,19.26,19.26,0,0,0,6.21,4.76,18.75,18.75,0,0,0,7.86,1.9c.44,0,.88,0,1.31,0,.42-.91.85-1.85,1.3-2.81a19.37,19.37,0,0,1-3.31.21A17.77,17.77,0,0,1,96.72,373.47Z" style="fill:#C53F3F"></path><path d="M135.12,293.24a33.41,33.41,0,0,1-22.5,1.29,33,33,0,0,1-9.37-4.55,32.6,32.6,0,0,1-3.33-2.72c0,1,0,2,0,3A35.51,35.51,0,0,0,136,296.11c.18-.85.36-1.71.53-2.58A1.46,1.46,0,0,0,135.12,293.24Z" style="fill:#C53F3F"></path><path d="M121.45,327.81a31.24,31.24,0,0,1-9.31.45,23.24,23.24,0,0,1-9.63-2.53,15.05,15.05,0,0,1-4.92-4.93c-.31.65-.65,1.37-1,2.16,3.19,5,9.28,7.49,15.51,8.16,4.59.49,10.26,0,14.6-2.27h0c.37-1,.74-2,1.12-3.08A32.31,32.31,0,0,1,121.45,327.81Z" style="fill:#C53F3F"></path><path d="M99.82,359.55c-5.26-2-8-6-9.86-10.19-.13,1.34-.25,2.73-.37,4.17a15.85,15.85,0,0,0,9.84,8.59,25,25,0,0,0,9.45,1.29A26.36,26.36,0,0,0,112,363l1.55-3.42a21,21,0,0,1-5.12,1.14A19.09,19.09,0,0,1,99.82,359.55Z" style="fill:#C53F3F"></path><path d="M161.64,376.22c.24-1.15.48-2.33.74-3.54a19.28,19.28,0,0,1-3.54,1.15,22.76,22.76,0,0,1-7.13.52,23.59,23.59,0,0,1-7-1.64,26.09,26.09,0,0,1-2.71-1.32c.06,1,.1,2,.15,3a26.42,26.42,0,0,0,12.08,2.87A25.83,25.83,0,0,0,161.64,376.22Z" style="fill:#C53F3F"></path><path d="M113.79,311.36c-7-1.52-12.85-7.51-14-9.87,0,1.16,0,1.77,0,2.94,0,0,0,1.23,0,1.25a22.23,22.23,0,0,0,4.13,4.43,20.52,20.52,0,0,0,9.56,4.52,38,38,0,0,0,12.33.24,18.68,18.68,0,0,0,6.08-1.77c.44-1.54.87-3.14,1.31-4.79C129.2,312.94,117.24,312.11,113.79,311.36Z" style="fill:#C53F3F"></path><path d="M114.68,344.85a37.41,37.41,0,0,1-9.4-.26,18.76,18.76,0,0,1-7.45-2.92,22.14,22.14,0,0,1-5.65-5.84c-.23.89-.44,1.81-.64,2.76A17.68,17.68,0,0,0,96,343.2a21.65,21.65,0,0,0,8.59,4.11,33.23,33.23,0,0,0,10.85.45,17.47,17.47,0,0,0,3.83-1c.51-1.16,1-2.29,1.48-3.38A25.09,25.09,0,0,1,114.68,344.85Z" style="fill:#C53F3F"></path><path d="M160.22,277.15a55.3,55.3,0,0,1-10.75.62c-3.79-.14-7.53-.77-11.32-1-1.27-.07-.29,1.94.37,2.19,8.11,3,18.12,3.1,26.54,1.17a38.23,38.23,0,0,0,9-3.16c0-1.67,0-3.32-.07-5a19.91,19.91,0,0,1-2.72,1.65A38.3,38.3,0,0,1,160.22,277.15Z" style="fill:#C53F3F"></path><path d="M153.44,344.19a43.23,43.23,0,0,1-8.11-1.81,15.89,15.89,0,0,1-5-2.9c0,1-.07,2-.09,3,3.38,2.75,8.82,3.87,12.66,4.47,5,.79,10.47.76,15.08-1.17.3-1.49.6-3,.88-4.34C164.53,344.55,158.67,344.91,153.44,344.19Z" style="fill:#C53F3F"></path><path d="M169.06,325a36.48,36.48,0,0,1-10.47,2.14,40.19,40.19,0,0,1-16.74-3c-.1.62-.22,1.39-.35,2.31,5.52,3,12.19,4.05,18.48,3.68a39.45,39.45,0,0,0,10.53-2.1c.31-.11.61-.24.91-.36.2-1.28.4-2.59.58-4C171,324.18,170.06,324.6,169.06,325Z" style="fill:#C53F3F"></path><path d="M163.38,358.13a29.84,29.84,0,0,1-9.35,1.18c-2.92,0-6-.12-8.69-1.22a14.59,14.59,0,0,1-3.46-2,12.46,12.46,0,0,1-1.14-1c.09,1,.17,2.1.25,3.17a15.12,15.12,0,0,0,1.51,1.12c3.14,2,6.68,2.59,10.39,2.74a35.5,35.5,0,0,0,11.66-1.14l.3-.11c.25-1.19.49-2.38.74-3.57A17.53,17.53,0,0,1,163.38,358.13Z" style="fill:#C53F3F"></path><path d="M148.61,300.29a52.16,52.16,0,0,0,11.63-1.93A59.07,59.07,0,0,0,171,294.15a29.4,29.4,0,0,0,3-1.75c0-1.37,0-2.73.06-4.1a34.4,34.4,0,0,1-4.84,3,59.42,59.42,0,0,1-10.79,4,52.75,52.75,0,0,1-10.8,1.73,86.08,86.08,0,0,1-9.37-.46l.47,3.2A34,34,0,0,0,148.61,300.29Z" style="fill:#C53F3F"></path><path d="M161.29,313.84a31.15,31.15,0,0,0,12.09-5.27c.11-1.73.2-3.49.28-5.27-.2.24-.4.48-.63.71a24.21,24.21,0,0,1-3.29,2.68,27.13,27.13,0,0,1-9.05,3.91,36.62,36.62,0,0,1-11.29.73c-3.11-.26-6.13-1-9.18-1.53l.41,2.83A41.11,41.11,0,0,0,161.29,313.84Z" style="fill:#C53F3F"></path><path d="M160.46,258.12c-8.08,1.79-16,.27-23.52-2.73-.71-.28-.6,1.2-.18,1.47,7.55,5,17.31,6.28,26.11,4.18a37.29,37.29,0,0,0,10.61-4.38c-.07-1.5-.14-3-.22-4.42a19.88,19.88,0,0,1-1.87,1.36A34.1,34.1,0,0,1,160.46,258.12Z" style="fill:#C53F3F"></path><g style="opacity:0.15"><path d="M137.26,289.81l4.59-33.15s13.52-7.15,17.17-14.27c0,0-1.05,11.29-11.44,17.05l-6,33.16.54,30Z"></path></g><path d="M186.2,414.87c-.49,1.68-.74,3.13-4.67,5.3a22.76,22.76,0,0,1-15.2,1.71c-7.24-1.58-9.12-3.14-11.79-5.72s-5.1-5.25-8.36-6.26c-3-.94-7.63-2.55-8.52-3.54s-.31-5-.31-5Z" style="fill:#263238"></path><path d="M142.18,384.17a1.36,1.36,0,0,0-1.38.85c-.35,1.09-1,4.31-1.67,6.1a43.47,43.47,0,0,0-1.79,11.65c.17,2.09,6.46,4,9.56,5.43a30.57,30.57,0,0,1,8.41,6.2,23.13,23.13,0,0,0,13,5.93c5.51.49,11.53.29,15.78-3.36A16,16,0,0,0,190,403.19a7.69,7.69,0,0,0-1.92-4.35,4.05,4.05,0,0,0-4.93-.12c3.2,0,3,3.2,1.49,5a5.69,5.69,0,0,1-3.8,1.85,11.78,11.78,0,0,1-4.29-.49,22.28,22.28,0,0,1-7.09-3.23,35.37,35.37,0,0,1-5.37-4.77,20.82,20.82,0,0,1-3-3.93,10.12,10.12,0,0,1-.76-2.53,24.93,24.93,0,0,1-.47-2.72,1.74,1.74,0,0,0-.59-1.39,1.94,1.94,0,0,0-1.1-.2,33.07,33.07,0,0,0-5.87.65,3.58,3.58,0,0,0-2.06,1,2.77,2.77,0,0,0-.56,1.46,11.57,11.57,0,0,1-.22,1.55,1,1,0,0,1-.29.49c-.32.24-.75,0-1-.26a19.87,19.87,0,0,1-2-2.81c-.35-.51-2.12-1-2.59-1.4a15.73,15.73,0,0,1-1.36-1C141.8,385.42,142.13,384.82,142.18,384.17Z" style="fill:#455a64"></path><path d="M186.6,398a3.61,3.61,0,0,1-3.69,3.38,3.41,3.41,0,0,1-3.54-3.38,3.59,3.59,0,0,1,3.68-3.39A3.42,3.42,0,0,1,186.6,398Z" style="fill:#C53F3F"></path><path d="M165.14,395.91a11.75,11.75,0,0,0-2.17-2.56,6,6,0,0,0-3.33-.89,12.19,12.19,0,0,0-4.17.45,6.64,6.64,0,0,0-2.93,1.55c-1,1.15-.09,2.55.57,3.63a11,11,0,0,0,2.18,2.78,4,4,0,0,0,3.55.83c1.35-.28,2.69-.67,4-1,1.07-.27,2.62-.41,3.1-1.52S165.73,396.78,165.14,395.91Zm-1.07,2.93-1.52.37-3.18.77c-1,.24-1.82.47-2.66-.16a7.66,7.66,0,0,1-1.71-2.05c-.25-.39-.48-.79-.71-1.19s-.61-.89-.34-1.22a3.17,3.17,0,0,1,1.16-.58,9.38,9.38,0,0,1,4.74-1.07A2.79,2.79,0,0,1,161,394a7.47,7.47,0,0,1,1.94,1.82,6,6,0,0,1,1.35,2.22,1.6,1.6,0,0,1,.09.53C164.34,398.79,164.3,398.78,164.07,398.84Z" style="fill:#fafafa"></path><path d="M95.8,416.12c-1.07,4.61-2.35,7.57-4.58,10s-5.71,2.77-9,1.45-7.29-4.12-7.64-8.28.28-6.91,1.73-11.14Z" style="fill:#263238"></path><path d="M86.55,381c-1.27.17-3,6.25-4.85,12.53-2,6.7-3.57,8.55-5.22,14-1.88,6.19-1.73,8.38,0,12.55s9.59,9.16,14.61,4.39c4.1-3.9,4.82-8.11,5.55-14.46a125,125,0,0,1,2.56-15.15c1.07-4.77,3.48-8.92,2.33-9.65-.21.69-2.27,5.79-3.13,5.05-.41-.14-.38-.84-.08-2.07a2,2,0,0,0-.13-1.62,2.76,2.76,0,0,0-1.47-.91c-1.36-.48-3.23-1.19-4.63-1.54-.82-.2-.35-.14-1.18-.32s-2.35-.64-3.14-.39c-.48.14-.59.54-.77,1s-.4,1.05-.62,1.48c-.09.16-.41.5-.61.45s-.29-.92-.2-1.28.14-1,.23-1.39S86.23,382.13,86.55,381Z" style="fill:#455a64"></path><path d="M87.65,405.77a9.06,9.06,0,0,1-2.43,3.74A5.28,5.28,0,0,1,83,410.87a2.86,2.86,0,0,1-2.2-.28c-.08-.06-.1.1-.06.15a2.91,2.91,0,0,0,2.08.84,4.83,4.83,0,0,0,2.76-1.06,9.24,9.24,0,0,0,3.22-4.4C89,405.57,87.84,405.21,87.65,405.77Z" style="fill:#37474f"></path><path d="M94.11,405.85a3.41,3.41,0,0,1-3.54,3.36,3.56,3.56,0,0,1-3.66-3.36,3.4,3.4,0,0,1,3.54-3.36A3.56,3.56,0,0,1,94.11,405.85Z" style="fill:#C53F3F"></path><path d="M96.89,392.38a1.42,1.42,0,0,0-.54-.6c-2.11-1.32-5.2-1.81-7.62-2.34-1.21-.26-2.66-.58-3.47.52a4.61,4.61,0,0,0-.6,1.47c-.21.66-.41,1.31-.61,2-.33,1.12-.34,2.24.79,3a12.74,12.74,0,0,0,3.8,1.29c1.45.36,2.91.69,4.38,1a3.51,3.51,0,0,0,1.92.17,1.82,1.82,0,0,0,1-1.07C96.43,396.67,97.6,393.83,96.89,392.38Zm-1.45,2.31c-.13.52-.27,1-.42,1.54a9.14,9.14,0,0,1-.44,1.24c-.13.24-.13.27-.37.24a6.56,6.56,0,0,1-.88-.19c-2.15-.49-4.38-.91-6.47-1.61a4.11,4.11,0,0,1-1.18-.55,1.11,1.11,0,0,1-.3-1.23c.22-1,.57-1.92.87-2.87.13-.42.25-.9.82-.87a25.35,25.35,0,0,1,3.45.79,23,23,0,0,1,3.92,1.18C95.78,392.9,95.74,393.5,95.44,394.69Z" style="fill:#fafafa"></path></g><path d="M105.31,227.58,83.94,277.26s23.86,25.4,57.27,19.79c5.11-12.95,5.8-20.52,5.8-20.52s1.84,7.81,5.53,18.84c21.87-1,34.68-11.61,34.68-11.61l-17.43-55s-5.6,7-31,7.33S105.31,227.58,105.31,227.58Z" style="fill:#C53F3F"></path><path d="M105.31,227.58,83.94,277.26s23.86,25.4,57.27,19.79c5.11-12.95,5.8-20.52,5.8-20.52s1.84,7.81,5.53,18.84c21.87-1,34.68-11.61,34.68-11.61l-17.43-55s-5.6,7-31,7.33S105.31,227.58,105.31,227.58Z" style="fill:#fff;opacity:0.30000000000000004"></path><path d="M91,287.51a5.4,5.4,0,0,0,5.28.23,2.7,2.7,0,0,0,3.83,2.41c.66,3.11,4.63,4.87,7.46,3.51a2.13,2.13,0,0,0,1.46,1.91,3.89,3.89,0,0,0,2.52-.07c-.32,1.5,1.09,2.94,2.61,3.18a7.26,7.26,0,0,0,4.38-1.1,2.71,2.71,0,0,0,2,1.78c.27,0,2.55-.42,2.19-1a4.15,4.15,0,0,0,6.76.23,5,5,0,0,0,3.43,1.68,3.22,3.22,0,0,0,3.09-2,4.38,4.38,0,0,0,3.92,1.18,3.33,3.33,0,0,0,1.84-.92c.82-.9.77-2.27.67-3.48,0,.45,1.72.17,1.94.09a1.93,1.93,0,0,0,1.19-1.3,3,3,0,0,0-1.14-3.57,4.4,4.4,0,0,0,2.74-8.18,3.06,3.06,0,0,0,2.93-3.12,4.74,4.74,0,0,0-2.48-3.85,4.85,4.85,0,0,0-5.6.23c-1.47,1.35-1.31,4.24.53,5a3.14,3.14,0,0,0-2.3,4.46,4.59,4.59,0,0,0-5.4,6.47,6.24,6.24,0,0,0-8.92.85,6.32,6.32,0,0,0-9.33-2.17,2.5,2.5,0,0,0-4.61-1.49,7.92,7.92,0,0,0-4.11-4.93,5.13,5.13,0,0,0-6,1.3,3.41,3.41,0,0,0-4.19-3.49,9.18,9.18,0,0,0-2.49-5c-1.43-1.25-3.85-1.54-5.16-.17-.6-1.93-1.83-3.88-3.78-4.42-3.19-.9-6.1,2.71-5,5.65a4.34,4.34,0,0,0,4.31,2.69,2.18,2.18,0,0,0-.37,2.53c.9,1.64,2.09.64,3.18,0C88.71,284.6,89.23,286.39,91,287.51Z" style="fill:#C53F3F"></path><path d="M91,287.51a5.4,5.4,0,0,0,5.28.23,2.7,2.7,0,0,0,3.83,2.41c.66,3.11,4.63,4.87,7.46,3.51a2.13,2.13,0,0,0,1.46,1.91,3.89,3.89,0,0,0,2.52-.07c-.32,1.5,1.09,2.94,2.61,3.18a7.26,7.26,0,0,0,4.38-1.1,2.71,2.71,0,0,0,2,1.78c.27,0,2.55-.42,2.19-1a4.15,4.15,0,0,0,6.76.23,5,5,0,0,0,3.43,1.68,3.22,3.22,0,0,0,3.09-2,4.38,4.38,0,0,0,3.92,1.18,3.33,3.33,0,0,0,1.84-.92c.82-.9.77-2.27.67-3.48,0,.45,1.72.17,1.94.09a1.93,1.93,0,0,0,1.19-1.3,3,3,0,0,0-1.14-3.57,4.4,4.4,0,0,0,2.74-8.18,3.06,3.06,0,0,0,2.93-3.12,4.74,4.74,0,0,0-2.48-3.85,4.85,4.85,0,0,0-5.6.23c-1.47,1.35-1.31,4.24.53,5a3.14,3.14,0,0,0-2.3,4.46,4.59,4.59,0,0,0-5.4,6.47,6.24,6.24,0,0,0-8.92.85,6.32,6.32,0,0,0-9.33-2.17,2.5,2.5,0,0,0-4.61-1.49,7.92,7.92,0,0,0-4.11-4.93,5.13,5.13,0,0,0-6,1.3,3.41,3.41,0,0,0-4.19-3.49,9.18,9.18,0,0,0-2.49-5c-1.43-1.25-3.85-1.54-5.16-.17-.6-1.93-1.83-3.88-3.78-4.42-3.19-.9-6.1,2.71-5,5.65a4.34,4.34,0,0,0,4.31,2.69,2.18,2.18,0,0,0-.37,2.53c.9,1.64,2.09.64,3.18,0C88.71,284.6,89.23,286.39,91,287.51Z" style="opacity:0.1"></path><path d="M142.63,245.41a3.2,3.2,0,0,0,.57,6.2,4,4,0,0,0,1.38,7.43,3.26,3.26,0,1,0,.12,6.52,3.05,3.05,0,0,0-2.52,3.52,3.56,3.56,0,0,0,3.54,2.73,3.79,3.79,0,0,0,1.24,7.4,4.2,4.2,0,0,0-2,3.77c.09,1.83,1.8,4,3.75,4a4.23,4.23,0,0,0,2.36,8,2.27,2.27,0,0,0,4.23,1.6,4.19,4.19,0,0,0,3.79,1.78,4.24,4.24,0,0,0,3.38-2.47,5.08,5.08,0,0,0,4.37,1.46,3.72,3.72,0,0,0,3-3.26,1.54,1.54,0,0,0,2.94-.81,4.28,4.28,0,0,0,7.64-3,2.29,2.29,0,0,0,3.41-1.84,4.73,4.73,0,0,0,5.63-2.59,4.27,4.27,0,0,0-2.57-5.49,3.88,3.88,0,0,0-4.79,3.43,3.07,3.07,0,0,0-5.14,2.71,2.64,2.64,0,0,0-3.94,1.74,4.24,4.24,0,0,0-7.91,2,2.68,2.68,0,0,0-4.38,0,3.33,3.33,0,0,0-1.84-2.85,3.38,3.38,0,0,0-3.39.3,2.64,2.64,0,0,0,.92-2.68,2.72,2.72,0,0,0-2-1.93c.58-.48,1.15-.91.91-1.71-.17-.54-1.36-1.35-1.94-1.14a2.36,2.36,0,0,0,1.15-3,4.23,4.23,0,0,0-2.69-2.24,2.14,2.14,0,0,0,1.48-2.63,3,3,0,0,0-2.5-2,5.14,5.14,0,0,0,2.27-2.72,3.42,3.42,0,0,0-1.16-3.06,10.16,10.16,0,0,0-2.94-1.71,3.13,3.13,0,0,0,1.81-3.22,5,5,0,0,0-2-3.32,2.45,2.45,0,0,0,.87-4.49,4.64,4.64,0,0,0,1.82-4.45c-.25-1.43-1-1.93-2-2.74,1.93-2,1.68-5.93-1.28-6.77-2.12-.6-5.34.2-6.49,2.21A4.4,4.4,0,0,0,142.63,245.41Z" style="fill:#C53F3F"></path></g><g id="freepik--top--inject-51"><g id="freepik--arm--inject-51"><path d="M183.75,184c6.65,17.32,12.74,31.42,12.74,31.42a108.7,108.7,0,0,0,32.34,5.13,7.31,7.31,0,0,0,4.74-1.76c3.51-3,6.41-3.76,10.27-5.65,3-1.49,4.17-3.16,4.83-2.67.86.65,2,2.64.3,5a26.26,26.26,0,0,1-4.53,4.36s7.19,1,13.19-1.42c8.14-3.27,12.62.28,8.07,10.13-1.63,3.53-9,9.77-25.44,10.39-4.73.18-11.54.63-17.53.12-16-1.38-19.72-1.05-30.84-2.47-6.12-.78-8.1-1.44-11.1-6.73-13.73-24.17-14.61-25.78-23.82-43.33l4.7-26.14C172.64,160.92,176.1,164.07,183.75,184Z" style="fill:#ffbda7"></path><path d="M160.1,159.84c-3.68,1.73-5.25,8.88-4.92,16.92s.19,11.93,7,23.52,15.51,27.75,17.74,30.95,2.52,5.12,10.57,6.69c7.5,1.46,28.06,2.86,28.06,2.86S216.7,234,217,228.58a36.33,36.33,0,0,1,1.49-8.82l-21.62-4.92s-8.39-21.69-11.4-28.39C179.92,174.08,177.47,158.75,160.1,159.84Z" style="fill:#C53F3F"></path><path d="M216,218.87l10.5,1.22s-.56,15.3,2.47,22.27c-.55.23-14.65,1.22-14.65,1.22S208.68,228.38,216,218.87Z" style="fill:#37474f"></path><path d="M222,236.66a1.86,1.86,0,1,1-2.43-1A1.87,1.87,0,0,1,222,236.66Z" style="fill:#f0f0f0"></path></g><g id="freepik--chest--inject-51"><path d="M170.75,221.61c-.11,3.35-.27,6.71-.5,9.93-1.88,1.26-10.56,6.1-31.83,6.12-19.3,0-30.09-5.44-33.25-7.33.08-2.69.17-5.77.24-9.06.09-3.73.16-7.74.21-11.69.07-7.15-5.79-33-5.87-36.11-.16-6.17,2.94-8.05,10.83-11.29,3.5,1.43,5.88-.92,9.49-1.64,0,0,24.2-1.94,27.65-2.12,6.5-.33,15.05,3.23,15.05,3.23,4,3.63,7.29,10.74,7.89,28.09C170.78,193.52,171.2,207.58,170.75,221.61Z" style="fill:#C53F3F"></path><path d="M170.75,221.61c-.11,3.35-.27,6.71-.5,9.93-1.88,1.26-10.56,6.1-31.83,6.12-19.3,0-30.09-5.44-33.25-7.33.08-2.69.17-5.77.24-9.06.09-3.73.16-7.74.21-11.69.07-7.15-5.79-33-5.87-36.11-.16-6.17,2.94-8.05,10.83-11.29,3.5,1.43,5.88-.92,9.49-1.64,0,0,24.2-1.94,27.65-2.12,6.5-.33,15.05,3.23,15.05,3.23,4,3.63,7.29,10.74,7.89,28.09C170.78,193.52,171.2,207.58,170.75,221.61Z" style="fill:#fff;opacity:0.30000000000000004"></path><path d="M148.85,199.7a3.18,3.18,0,1,1-3.18-3.17A3.18,3.18,0,0,1,148.85,199.7Z" style="fill:#f0f0f0"></path><path d="M148.85,212.56a3.18,3.18,0,1,1-3.18-3.18A3.18,3.18,0,0,1,148.85,212.56Z" style="fill:#f0f0f0"></path></g><path d="M104.18,229.69l1.29-8.83a83.66,83.66,0,0,0,32.71,6.72c22.54,0,32.82-6.11,32.82-6.11l-.34,9.79s-7.81,6.37-32.24,6.4C115.08,237.68,104.18,229.69,104.18,229.69Z" style="fill:#37474f"></path><path d="M154.9,227.62c-.26-2.57-4.06-1.93-8.15-1.71-5.68.32-8.71.41-9.06,3.46a60.81,60.81,0,0,0-.23,7.19c-.06,2.91,6.43,2.5,9.29,2.35,3.2-.18,8.53,0,8.43-3C155.13,234.3,155.06,229.27,154.9,227.62Zm-8.25,9c-2.15.1-7,.37-6.94-1.52a34.23,34.23,0,0,1,.16-4.71c.27-2,2.53-2.06,6.78-2.26,3-.15,5.88-.56,6.08,1.12.12,1.08.17,4.36.2,5.38C153,236.61,149,236.53,146.65,236.63Z" style="fill:#f0f0f0"></path><path d="M158.88,106.37c-4.93-4.46-6.78-14.6-16-14-6-2.68-7.27-2.77-11.36-3a32,32,0,0,0-16.42,4.15c-4.62,2.85-9,8-10.44,13.18-1.49,5.54-1.62,15.31.59,22.89-4.31,1.21-9.94,6-7.32,15.12,1.08,3.73,4.81,6.75,8.69,6.51a5.29,5.29,0,0,1-1-4.58,13.46,13.46,0,0,0,8.41,8.77,18.08,18.08,0,0,0,12.37-.27,2.52,2.52,0,0,1-1.07-1.77c0-.15,5.75-1.08,6.31-1.17,1.05-.17,2.1-.36,3.15-.58l25.94-25.44c.48-.95.87-1.62.87-1.62C168.25,118.35,164.68,107.51,158.88,106.37Z" style="fill:#263238"></path><path d="M155.82,100.26c-4-6.49-19-19.83-29.15-19.36-8.42.39-15.84,3.73-23.64,6.47C95.69,90,90.67,97.6,89,105.07a14.26,14.26,0,0,0,.8,9.44c1.34,2.81,2.79,5.38.76,8.39-1.89,2.8-5.61,3.73-7.94,6.17a8.28,8.28,0,0,0,7.59,13.86c-2,.32-3.89-1.72-3.89-3.77a6.34,6.34,0,0,1,3.09-5,24.49,24.49,0,0,1,5.64-2.4c2.94-1,6-2.52,7.4-5.31.94-1.9,1-4.68,2.74-6.1a10.46,10.46,0,0,1,2.74-1.18l7.55-3,20.09-7.91Z" style="fill:#C53F3F"></path><path d="M155.82,100.26c-4-6.49-19-19.83-29.15-19.36-8.42.39-15.84,3.73-23.64,6.47C95.69,90,90.67,97.6,89,105.07a14.26,14.26,0,0,0,.8,9.44c1.34,2.81,2.79,5.38.76,8.39-1.89,2.8-5.61,3.73-7.94,6.17a8.28,8.28,0,0,0,7.59,13.86c-2,.32-3.89-1.72-3.89-3.77a6.34,6.34,0,0,1,3.09-5,24.49,24.49,0,0,1,5.64-2.4c2.94-1,6-2.52,7.4-5.31.94-1.9,1-4.68,2.74-6.1a10.46,10.46,0,0,1,2.74-1.18l7.55-3,20.09-7.91Z" style="fill:#fff;opacity:0.30000000000000004"></path><path d="M93.31,143.77a4.29,4.29,0,1,1-4.57-4A4.3,4.3,0,0,1,93.31,143.77Z" style="fill:#C53F3F"></path><path d="M93.31,143.77a4.29,4.29,0,1,1-4.57-4A4.3,4.3,0,0,1,93.31,143.77Z" style="opacity:0.30000000000000004"></path><path d="M102.6,116.89a36,36,0,0,1-2.72-18.56s-5.1,8.29-1.94,17.51C100.53,120.54,102.6,116.89,102.6,116.89Z" style="fill:#C53F3F;opacity:0.6000000000000001"></path><path d="M105.22,129.62c6.33-7,28.88-26.72,53.66-23.25,0,0,1-14.69-1.83-17S147,99.81,147,99.81s-4.33-12.16-8-11.62-5.38,13.91-5.38,13.91-7-12.44-11.18-10.72-2,16.31-2,16.31-10.27-10.46-13-8.85S109.13,115,109.13,115,97,111.6,95.4,113.34,105.22,129.62,105.22,129.62Z" style="fill:#C53F3F"></path><path d="M105.22,129.62c6.33-7,28.88-26.72,53.66-23.25,0,0,1-14.69-1.83-17S147,99.81,147,99.81s-4.33-12.16-8-11.62-5.38,13.91-5.38,13.91-7-12.44-11.18-10.72-2,16.31-2,16.31-10.27-10.46-13-8.85S109.13,115,109.13,115,97,111.6,95.4,113.34,105.22,129.62,105.22,129.62Z" style="opacity:0.30000000000000004"></path><path d="M114.91,140.17a9.34,9.34,0,0,1-4.31-2.68,12.58,12.58,0,0,1-2.43-4.55,23.6,23.6,0,0,1-1.12-6.11,11.22,11.22,0,0,1,.76-5.66,1.14,1.14,0,0,1,.66-.65.82.82,0,0,1,.72.29,3.82,3.82,0,0,1,.45.68c1,1.7,2.85,2.58,4.46,3.57a13.25,13.25,0,0,1,4.46,4.38c.56,1,1.41,2.69,2.81,2.25,2.09-.66,2.1-5.12,2.4-7.14,1.68-11.31,9.82-18.6,19.24-17.81,8.76-3.72,14.72.46,17,6.89a20.62,20.62,0,0,1,1.39,10.6c-.2,3,1.19,4.18,1.61,9.06s-.63,10-2.91,13.39c-2.64,3.86-8.07,6.11-14.11,6l.24,7.09c6.77,9.23-17.56,10.82-23.88,2.63l-1.8-23.86S119,141.13,114.91,140.17Z" style="fill:#ffbda7"></path><path d="M118.36,134.59a7.83,7.83,0,0,0-1.69-3.78,16.62,16.62,0,0,0-3.21-3c-.64-.47-1.28-1-1.94-1.4a6.14,6.14,0,0,1-1.61-1.29s0,0,0,0A6.37,6.37,0,0,0,112,127.9c.94.77,1.89,1.53,2.76,2.38a9.3,9.3,0,0,1,2.06,2.9c.34.79,1,2.8-.36,3-.4.07-.22.82.11.88C118,137.39,118.49,135.71,118.36,134.59Z" style="fill:#f0997a"></path><path d="M155.42,102.94a16.38,16.38,0,0,1,.83,3.93c.78,9.71-8.68,14.4-8.68,14.4s2.11-7.62-.73-11c0,0,.6,8.3-8.39,12,0,0,2.09-6,.14-9.79,0,0-1.66,9.36-15.77,11.65a27.6,27.6,0,0,1,.56-8.09c1-4.66,3.55-10.21,9.68-13.36A24,24,0,0,1,155.42,102.94Z" style="fill:#263238"></path><path d="M138,129.94c0,1.88-2.11,3.44-4.79,3.48s-4.86-1.44-4.89-3.32,2.11-3.45,4.78-3.49S138,128.05,138,129.94Z" style="fill:#f28f8f"></path><path d="M165.26,127.8c0,1.88-2.11,3.44-4.78,3.48s-4.87-1.44-4.9-3.32,2.11-3.45,4.78-3.49S165.23,125.92,165.26,127.8Z" style="fill:#f28f8f"></path><path d="M139.78,125.3a2.5,2.5,0,1,1-2.85-2.2A2.54,2.54,0,0,1,139.78,125.3Z" style="fill:#263238"></path><path d="M131.33,119.33l4.48-2.36a2.53,2.53,0,0,0-4.48,2.36Z" style="fill:#263238"></path><path d="M153.57,116.18l4.93,1.43a2.57,2.57,0,0,0-4.93-1.43Z" style="fill:#263238"></path><path d="M139.94,137.89l8.51,1.82a4.29,4.29,0,0,1-5.08,3.49A4.56,4.56,0,0,1,139.94,137.89Z" style="fill:#b16668"></path><path d="M139.88,139a4.51,4.51,0,0,0,3.49,4.24,4.17,4.17,0,0,0,1.45,0A5.22,5.22,0,0,0,139.88,139Z" style="fill:#f28f8f"></path><path d="M157.64,124a2.5,2.5,0,1,1-2.85-2.21A2.56,2.56,0,0,1,157.64,124Z" style="fill:#263238"></path><path d="M146,152.7a36.09,36.09,0,0,1-15.38-3,16.52,16.52,0,0,1-6.07-5.11,14.32,14.32,0,0,0,3.75,6.12c5.92,5.21,17.8,4.79,17.8,4.79Z" style="fill:#f0997a"></path><path d="M145,122.37c1.66,2.31,4,5.07,5.95,6.25s3.6,1.42,3.91,2.16c.23.53-.39,1.46-1.75,2.34a17.72,17.72,0,0,1-5.71,1.9A41.85,41.85,0,0,1,145,122.37Z" style="fill:#f0997a"></path><g id="freepik--arm--inject-51"><g id="freepik--gift--inject-51"><g id="freepik--gift--inject-51"><g id="freepik--Box--inject-51"><g id="freepik--box--inject-51"><polygon points="263.54 219.07 200.58 255.42 148.53 225.4 211.49 189.05 263.54 219.07" style="fill:#C53F3F"></polygon><polygon points="263.54 219.07 200.58 255.42 148.53 225.4 211.49 189.05 263.54 219.07" style="fill:#fff;opacity:0.15"></polygon><polygon points="200.58 283.98 200.58 255.42 263.54 219.07 263.54 247.63 200.58 283.98" style="fill:#C53F3F"></polygon><polygon points="200.58 283.98 200.58 255.42 263.54 219.07 263.54 247.63 200.58 283.98" style="opacity:0.2"></polygon><polygon points="200.58 283.98 148.53 253.96 148.53 225.4 200.58 255.42 200.58 283.98" style="fill:#C53F3F"></polygon><polygon points="200.58 268.92 200.58 268.92 200.58 255.42 189.6 262.58 159.51 245.24 148.53 225.4 148.53 238.9 148.53 238.9 148.53 240.42 148.53 240.42 148.53 253.96 159.51 246.76 189.6 264.1 200.58 283.98 200.58 270.44 200.58 270.44 200.58 268.92" style="opacity:0.1"></polygon></g></g><g id="freepik--Ribbon--inject-51"><polygon points="244.75 258.48 244.75 229.92 252.62 225.38 252.62 253.94 244.75 258.48" style="fill:#37474f"></polygon><polygon points="166.86 264.61 166.86 236.05 158.99 231.51 158.99 260.07 166.86 264.61" style="fill:#263238"></polygon><polygon points="252.62 225.38 200.57 195.36 192.7 199.9 244.75 229.92 252.62 225.38" style="fill:#455a64"></polygon><g style="opacity:0.15"><polygon points="220.39 206.8 212.48 211.32 211.08 210.51 218.95 205.97 220.39 206.8"></polygon></g><polygon points="158.99 231.51 221.95 195.17 229.82 199.71 166.86 236.05 158.99 231.51" style="fill:#455a64"></polygon></g></g></g><g id="freepik--gift--inject-51"><polygon points="198.05 248.38 241.78 223.1 241.78 205.38 242.71 204.84 242.71 191.95 198.05 217.73 198.05 248.38" style="fill:#C53F3F"></polygon><polygon points="198.05 248.38 241.78 223.1 241.78 205.38 242.71 204.84 242.71 191.95 198.05 217.73 198.05 248.38" style="fill:#fff;opacity:0.30000000000000004"></polygon><polygon points="198.05 230.63 214.79 220.96 241.78 205.38 241.78 207.23 198.05 232.47 198.05 230.63" style="opacity:0.15"></polygon><polygon points="198.05 248.38 154.56 223.29 154.56 205.51 153.4 204.84 153.4 191.95 198.05 217.73 198.05 248.38" style="fill:#C53F3F"></polygon><polygon points="198.05 248.38 154.56 223.29 154.56 205.51 153.4 204.84 153.4 191.95 198.05 217.73 198.05 248.38" style="fill:#fff;opacity:0.45"></polygon><polygon points="154.55 205.51 198.05 230.63 198.05 232.47 154.55 207.39 154.55 205.51" style="opacity:0.1"></polygon><polygon points="153.4 191.95 198.05 166.17 242.71 191.95 198.05 217.73 153.4 191.95" style="fill:#C53F3F"></polygon><polygon points="153.4 191.95 198.05 166.17 242.71 191.95 198.05 217.73 153.4 191.95" style="fill:#fff;opacity:0.6000000000000001"></polygon><polygon points="179.92 237.92 179.92 207.26 172.66 203.07 172.66 233.73 179.92 237.92" style="fill:#37474f"></polygon><polygon points="216.19 237.92 216.19 207.26 223.44 203.07 223.44 233.73 216.19 237.92" style="fill:#263238"></polygon><polygon points="172.66 203.07 217.32 177.29 224.57 181.48 179.92 207.26 172.66 203.07" style="fill:#455a64"></polygon><polygon points="197.46 197.14 190.2 192.95 197.46 188.76 204.71 192.95 197.46 197.14" style="opacity:0.25"></polygon><polygon points="216.19 207.26 171.53 181.48 178.79 177.29 223.44 203.07 216.19 207.26" style="fill:#455a64"></polygon><path d="M170.31,180.73a14.88,14.88,0,0,0,9.43,9.88,79.53,79.53,0,0,0,17.2,3.85l-17.52-22.31Z" style="fill:#263238"></path><path d="M196.94,194.46s.41-6.8-2.94-12.06-14.58-10.25-14.58-10.25a48.11,48.11,0,0,0-9.11,8.58,35.22,35.22,0,0,1,25.11,13.44Z" style="fill:#37474f"></path><path d="M179.74,182.78a35.6,35.6,0,0,1,7.9,4l5.71-5.3a29.62,29.62,0,0,0-7.53-6Z" style="fill:#455a64"></path><path d="M196.94,194.46a16.44,16.44,0,0,1-7.7,6.75c-5.56,2.48-14.7,2-14.7,2L174,191.71a11.55,11.55,0,0,0,9.47,5.46,17,17,0,0,0,11.33-3.76Z" style="fill:#263238"></path><path d="M196.94,194.46c-5.54-6-10.88-6.76-15.8-5.77-5.44,1.09-7.11,3-7.11,3l.51,11.55s3.08-5.54,11-7.82S196.94,194.46,196.94,194.46Z" style="fill:#37474f"></path><path d="M176.77,190c1.27,2,3.28,5.15,4.56,7.16a20.82,20.82,0,0,1,4.16-1.73,38.2,38.2,0,0,1,4.16-.95l-4.78-6.16a17.81,17.81,0,0,0-3.73.36A21.86,21.86,0,0,0,176.77,190Z" style="fill:#455a64"></path><path d="M196.66,193.16s8.08-.89,13.84-6.69,7.22-14.09,7.22-14.09l-9.94-6.67a18.88,18.88,0,0,1-2.3,15.6c-3.81,6-8.85,7.14-8.85,7.14Z" style="fill:#263238"></path><path d="M196.66,193.16l1.49-.26a26,26,0,0,1,8.43-15c7.6-6.53,11.14-5.56,11.14-5.56a30.2,30.2,0,0,0-9.94-6.67s-6.39,3.47-9.33,8.58C194.92,180.42,195.72,189.67,196.66,193.16Z" style="fill:#37474f"></path><path d="M212.24,173.92l-8.39-5.54c-.41.33-.83.67-1.27,1.05l8.19,5.36Q211.55,174.3,212.24,173.92Z" style="fill:#455a64"></path><path d="M209.47,175.67l-8.11-5.07a19.4,19.4,0,0,0-2.23,2.62l-.06.08c-.22.32-.43.65-.62,1s-.19.42-.3.63l6.79,4.58c.51-.53,1.05-1.05,1.64-1.56C207.62,177.05,208.58,176.3,209.47,175.67Z" style="fill:#455a64"></path><path d="M196.89,194.44s2.52,2.68,8.59,4.2,13.72.6,17-3l-.67-10.72s-5.1,6.87-12.52,8c-5.65.89-12.4-1.35-12.4-1.35Z" style="fill:#263238"></path><path d="M196.51,192s5.89-6.14,12.22-7.1c8.58-1.3,13.1,0,13.1,0a15.88,15.88,0,0,1,.67,10.72s-3.7-4-12.39-4.31a29.51,29.51,0,0,0-13.22,3.15Z" style="fill:#37474f"></path><path d="M220.69,194.23a19.61,19.61,0,0,0-6-2.34l-1.11-7.5a36.38,36.38,0,0,1,6.39.15A24.87,24.87,0,0,1,220.69,194.23Z" style="fill:#455a64"></path></g><path d="M97.24,236.05a318.46,318.46,0,0,1-6.79-40c-2.2-20,1.69-25.51,13.27-30.39,8.65,5.49,11,26.24,11,26.24l5.36,36.75c1.91,1.61,24.94,15.47,33.47,19.13a6.73,6.73,0,0,0,4.78.15c4.19-1.4,7-1,11.07-1.33,3.18-.23,4.82-1.31,5.21-.62.49.89.66,3.07-1.69,4.63a25.34,25.34,0,0,1-5.6,2.27,41.42,41.42,0,0,0,10.86,2.49c12.8,1.12,14.16,2.16,7.49,10.39-4.18,5.16-13.87,7.47-28.33,2-4.17-1.57-5.73-1.89-11.66-4-11-3.86-12.79-4.62-21.13-7.69-5.67-2.08-11.19-3.87-18.52-7.29C100.64,246.37,98.9,243.27,97.24,236.05Z" style="fill:#ffbda7"></path><path d="M104.76,164.86c-6.43,2.44-11.59,4.87-14.34,12.43s-.84,17.81,1.06,31.11S97,237.23,97.82,241s.79,5.4,7.52,9,26.79,10.18,26.79,10.18.84-6.94,3.22-11.86a35.41,35.41,0,0,1,5.09-7.88L120.83,228s-3.27-24.54-4.22-31.83S114.46,171.27,104.76,164.86Z" style="fill:#C53F3F"></path><path d="M138.11,239l9.26,5.12s-6.34,13.93-6.18,21.54c-.59,0-14-4.44-14-4.44S127.7,245,138.11,239Z" style="fill:#37474f"></path><path d="M136.92,257.76a1.87,1.87,0,1,1-1.86-1.86A1.87,1.87,0,0,1,136.92,257.76Z" style="fill:#f0f0f0"></path></g><path d="M122.05,158.47s-14.45,2.8-14.24,5.06c.17,1.88,11.22,2.12,11.22,2.12s-9.88,8-8.25,9.26S126,171.25,126,171.25s-2.52,10.14-.89,11.38,10.58-9.42,10.58-9.42,6.71,9.84,8.91,10.28.8-12,.8-12,10.84,3.35,13.7,1.93-7.75-8-7.75-8,11-3.47,9.46-5c-3-3-14.68-2.71-14.68-2.71s-1.11,4.11-11.19,4.62S122.05,158.47,122.05,158.47Z" style="fill:#455a64"></path><path d="M110.46,163.35a2.64,2.64,0,1,1-2.64-2.64A2.64,2.64,0,0,1,110.46,163.35Z" style="fill:#f0f0f0"></path><path d="M111.79,175.39a2.64,2.64,0,1,1-2.64-2.64A2.64,2.64,0,0,1,111.79,175.39Z" style="fill:#f0f0f0"></path><circle cx="124.54" cy="184.33" r="2.64" style="fill:#f0f0f0"></circle><path d="M163.6,173.84A2.64,2.64,0,1,1,161,171.2,2.64,2.64,0,0,1,163.6,173.84Z" style="fill:#f0f0f0"></path><path d="M147.78,185a2.64,2.64,0,1,1-2.64-2.64A2.64,2.64,0,0,1,147.78,185Z" style="fill:#f0f0f0"></path><path d="M164.82,160.33a2.64,2.64,0,1,1-2.64-2.64A2.65,2.65,0,0,1,164.82,160.33Z" style="fill:#f0f0f0"></path></g></g></g></svg>